<mxfile host="app.diagrams.net" agent="Mozilla/5.0 (Windows NT 10.0; Win64; x64) AppleWebKit/537.36 (KHTML, like Gecko) Chrome/140.0.0.0 Safari/537.36 Edg/140.0.0.0" version="28.2.4" pages="9">
  <diagram name="BÃ i 1" id="J6V4-zImCbwy7wEBgWSK">
    <mxGraphModel dx="2140" dy="1047" grid="1" gridSize="10" guides="1" tooltips="1" connect="1" arrows="1" fold="1" page="1" pageScale="1" pageWidth="850" pageHeight="1100" math="0" shadow="0">
      <root>
        <mxCell id="0" />
        <mxCell id="1" parent="0" />
        <mxCell id="Wew5Z-_OS6r6jsYAiVlO-1" value="" style="shape=actor;whiteSpace=wrap;html=1;" vertex="1" parent="1">
          <mxGeometry x="340" y="180" width="40" height="60" as="geometry" />
        </mxCell>
        <mxCell id="Wew5Z-_OS6r6jsYAiVlO-2" value="" style="shape=actor;whiteSpace=wrap;html=1;" vertex="1" parent="1">
          <mxGeometry x="340" y="280" width="40" height="60" as="geometry" />
        </mxCell>
        <mxCell id="Wew5Z-_OS6r6jsYAiVlO-3" value="" style="shape=actor;whiteSpace=wrap;html=1;" vertex="1" parent="1">
          <mxGeometry x="340" y="380" width="40" height="60" as="geometry" />
        </mxCell>
        <mxCell id="Wew5Z-_OS6r6jsYAiVlO-4" value="" style="rhombus;whiteSpace=wrap;html=1;" vertex="1" parent="1">
          <mxGeometry x="450" y="280" width="80" height="80" as="geometry" />
        </mxCell>
        <mxCell id="Wew5Z-_OS6r6jsYAiVlO-5" value="&lt;b&gt;Client&lt;/b&gt;" style="text;html=1;align=center;verticalAlign=middle;whiteSpace=wrap;rounded=0;" vertex="1" parent="1">
          <mxGeometry x="330" y="220" width="60" height="30" as="geometry" />
        </mxCell>
        <mxCell id="Wew5Z-_OS6r6jsYAiVlO-6" value="&lt;b&gt;Client&lt;/b&gt;" style="text;html=1;align=center;verticalAlign=middle;whiteSpace=wrap;rounded=0;" vertex="1" parent="1">
          <mxGeometry x="330" y="320" width="60" height="30" as="geometry" />
        </mxCell>
        <mxCell id="Wew5Z-_OS6r6jsYAiVlO-7" value="&lt;b&gt;Client&lt;/b&gt;" style="text;html=1;align=center;verticalAlign=middle;whiteSpace=wrap;rounded=0;" vertex="1" parent="1">
          <mxGeometry x="330" y="420" width="60" height="30" as="geometry" />
        </mxCell>
        <mxCell id="Wew5Z-_OS6r6jsYAiVlO-8" value="" style="endArrow=classic;html=1;rounded=0;exitX=1;exitY=0;exitDx=0;exitDy=0;entryX=0.5;entryY=1;entryDx=0;entryDy=0;" edge="1" parent="1" source="Wew5Z-_OS6r6jsYAiVlO-7" target="Wew5Z-_OS6r6jsYAiVlO-4">
          <mxGeometry width="50" height="50" relative="1" as="geometry">
            <mxPoint x="520" y="450" as="sourcePoint" />
            <mxPoint x="570" y="400" as="targetPoint" />
            <Array as="points">
              <mxPoint x="490" y="420" />
            </Array>
          </mxGeometry>
        </mxCell>
        <mxCell id="Wew5Z-_OS6r6jsYAiVlO-9" value="" style="endArrow=classic;html=1;rounded=0;exitX=1;exitY=0;exitDx=0;exitDy=0;entryX=0;entryY=0.5;entryDx=0;entryDy=0;" edge="1" parent="1" source="Wew5Z-_OS6r6jsYAiVlO-6" target="Wew5Z-_OS6r6jsYAiVlO-4">
          <mxGeometry width="50" height="50" relative="1" as="geometry">
            <mxPoint x="520" y="450" as="sourcePoint" />
            <mxPoint x="570" y="400" as="targetPoint" />
          </mxGeometry>
        </mxCell>
        <mxCell id="Wew5Z-_OS6r6jsYAiVlO-10" value="" style="endArrow=classic;html=1;rounded=0;exitX=1;exitY=0;exitDx=0;exitDy=0;entryX=0.5;entryY=0;entryDx=0;entryDy=0;" edge="1" parent="1" source="Wew5Z-_OS6r6jsYAiVlO-5" target="Wew5Z-_OS6r6jsYAiVlO-4">
          <mxGeometry width="50" height="50" relative="1" as="geometry">
            <mxPoint x="520" y="450" as="sourcePoint" />
            <mxPoint x="570" y="400" as="targetPoint" />
            <Array as="points">
              <mxPoint x="490" y="220" />
            </Array>
          </mxGeometry>
        </mxCell>
        <mxCell id="Wew5Z-_OS6r6jsYAiVlO-11" value="&lt;b&gt;Load Balancer&lt;/b&gt;" style="text;html=1;align=center;verticalAlign=middle;whiteSpace=wrap;rounded=0;" vertex="1" parent="1">
          <mxGeometry x="460" y="305" width="60" height="30" as="geometry" />
        </mxCell>
        <mxCell id="Wew5Z-_OS6r6jsYAiVlO-12" value="FrontEnd" style="swimlane;whiteSpace=wrap;html=1;dashed=1;" vertex="1" parent="1">
          <mxGeometry x="550" y="127.5" width="150" height="385" as="geometry" />
        </mxCell>
        <mxCell id="Wew5Z-_OS6r6jsYAiVlO-13" value="" style="swimlane;startSize=0;fillColor=#FFFFFF;" vertex="1" parent="Wew5Z-_OS6r6jsYAiVlO-12">
          <mxGeometry x="40" y="35" width="80" height="320" as="geometry" />
        </mxCell>
        <mxCell id="Wew5Z-_OS6r6jsYAiVlO-14" value="&lt;b&gt;UI&lt;/b&gt;" style="text;html=1;align=center;verticalAlign=middle;whiteSpace=wrap;rounded=0;" vertex="1" parent="Wew5Z-_OS6r6jsYAiVlO-13">
          <mxGeometry x="10" width="60" height="30" as="geometry" />
        </mxCell>
        <mxCell id="Wew5Z-_OS6r6jsYAiVlO-15" value="&lt;b&gt;SPA&lt;/b&gt;" style="text;html=1;align=center;verticalAlign=middle;whiteSpace=wrap;rounded=0;" vertex="1" parent="Wew5Z-_OS6r6jsYAiVlO-13">
          <mxGeometry y="135" width="75" height="30" as="geometry" />
        </mxCell>
        <mxCell id="Wew5Z-_OS6r6jsYAiVlO-16" value="" style="endArrow=none;html=1;rounded=0;exitX=0.25;exitY=1;exitDx=0;exitDy=0;" edge="1" parent="Wew5Z-_OS6r6jsYAiVlO-12" source="Wew5Z-_OS6r6jsYAiVlO-13">
          <mxGeometry width="50" height="50" relative="1" as="geometry">
            <mxPoint x="60" y="365" as="sourcePoint" />
            <mxPoint x="120" y="45" as="targetPoint" />
            <Array as="points">
              <mxPoint x="60" y="365" />
              <mxPoint x="130" y="365" />
              <mxPoint x="130" y="45" />
            </Array>
          </mxGeometry>
        </mxCell>
        <mxCell id="Wew5Z-_OS6r6jsYAiVlO-17" value="" style="endArrow=classic;html=1;rounded=0;exitX=1;exitY=0.5;exitDx=0;exitDy=0;" edge="1" parent="1" source="Wew5Z-_OS6r6jsYAiVlO-4">
          <mxGeometry width="50" height="50" relative="1" as="geometry">
            <mxPoint x="520" y="420" as="sourcePoint" />
            <mxPoint x="590" y="320" as="targetPoint" />
          </mxGeometry>
        </mxCell>
        <mxCell id="Wew5Z-_OS6r6jsYAiVlO-18" value="" style="rounded=0;whiteSpace=wrap;html=1;" vertex="1" parent="1">
          <mxGeometry x="720" y="153.75" width="630" height="312.5" as="geometry" />
        </mxCell>
        <mxCell id="Wew5Z-_OS6r6jsYAiVlO-19" value="" style="swimlane;startSize=0;fillColor=#FFFFFF;" vertex="1" parent="1">
          <mxGeometry x="730" y="186.25" width="190" height="270" as="geometry" />
        </mxCell>
        <mxCell id="Wew5Z-_OS6r6jsYAiVlO-20" value="&lt;b&gt;Product&lt;/b&gt;" style="text;html=1;align=center;verticalAlign=middle;whiteSpace=wrap;rounded=0;" vertex="1" parent="Wew5Z-_OS6r6jsYAiVlO-19">
          <mxGeometry x="10" width="170" height="30" as="geometry" />
        </mxCell>
        <mxCell id="Wew5Z-_OS6r6jsYAiVlO-21" value="&lt;b&gt;UI&lt;/b&gt;" style="rounded=0;whiteSpace=wrap;html=1;" vertex="1" parent="Wew5Z-_OS6r6jsYAiVlO-19">
          <mxGeometry x="20" y="40" width="150" height="40" as="geometry" />
        </mxCell>
        <mxCell id="Wew5Z-_OS6r6jsYAiVlO-22" value="&lt;b&gt;Business&lt;/b&gt;&lt;div&gt;&lt;b&gt;&amp;nbsp;Logic&lt;/b&gt;&lt;/div&gt;" style="rounded=0;whiteSpace=wrap;html=1;" vertex="1" parent="Wew5Z-_OS6r6jsYAiVlO-19">
          <mxGeometry x="20" y="120" width="150" height="40" as="geometry" />
        </mxCell>
        <mxCell id="Wew5Z-_OS6r6jsYAiVlO-23" value="&lt;div&gt;&lt;span style=&quot;background-color: transparent; color: light-dark(rgb(0, 0, 0), rgb(255, 255, 255));&quot;&gt;&lt;b&gt;Data&amp;nbsp;&lt;/b&gt;&lt;/span&gt;&lt;/div&gt;&lt;div&gt;&lt;span style=&quot;background-color: transparent; color: light-dark(rgb(0, 0, 0), rgb(255, 255, 255));&quot;&gt;&lt;b&gt;Access&lt;/b&gt;&lt;/span&gt;&lt;/div&gt;" style="rounded=0;whiteSpace=wrap;html=1;" vertex="1" parent="Wew5Z-_OS6r6jsYAiVlO-19">
          <mxGeometry x="20" y="200" width="150" height="40" as="geometry" />
        </mxCell>
        <mxCell id="Wew5Z-_OS6r6jsYAiVlO-24" value="&lt;b&gt;listing products&lt;/b&gt;" style="rounded=0;whiteSpace=wrap;html=1;horizontal=1;flipV=1;flipH=0;textDirection=vertical-rl;" vertex="1" parent="Wew5Z-_OS6r6jsYAiVlO-19">
          <mxGeometry x="20" y="30" width="40" height="220" as="geometry" />
        </mxCell>
        <mxCell id="Wew5Z-_OS6r6jsYAiVlO-25" value="" style="swimlane;startSize=0;fillColor=#FFFFFF;" vertex="1" parent="1">
          <mxGeometry x="940" y="186.25" width="190" height="270" as="geometry" />
        </mxCell>
        <mxCell id="Wew5Z-_OS6r6jsYAiVlO-26" value="&lt;b&gt;Basket&lt;/b&gt;" style="text;html=1;align=center;verticalAlign=middle;whiteSpace=wrap;rounded=0;" vertex="1" parent="Wew5Z-_OS6r6jsYAiVlO-25">
          <mxGeometry x="10" width="170" height="30" as="geometry" />
        </mxCell>
        <mxCell id="Wew5Z-_OS6r6jsYAiVlO-27" value="UI" style="rounded=0;whiteSpace=wrap;html=1;fontStyle=1" vertex="1" parent="Wew5Z-_OS6r6jsYAiVlO-25">
          <mxGeometry x="20" y="40" width="150" height="40" as="geometry" />
        </mxCell>
        <mxCell id="Wew5Z-_OS6r6jsYAiVlO-28" value="Business&lt;div&gt;&amp;nbsp;Logic&lt;/div&gt;" style="rounded=0;whiteSpace=wrap;html=1;fontStyle=1" vertex="1" parent="Wew5Z-_OS6r6jsYAiVlO-25">
          <mxGeometry x="20" y="120" width="150" height="40" as="geometry" />
        </mxCell>
        <mxCell id="Wew5Z-_OS6r6jsYAiVlO-29" value="&lt;div&gt;&lt;span style=&quot;background-color: transparent; color: light-dark(rgb(0, 0, 0), rgb(255, 255, 255));&quot;&gt;&lt;b&gt;Data&amp;nbsp;&lt;/b&gt;&lt;/span&gt;&lt;/div&gt;&lt;div&gt;&lt;span style=&quot;background-color: transparent; color: light-dark(rgb(0, 0, 0), rgb(255, 255, 255));&quot;&gt;&lt;b&gt;Access&lt;/b&gt;&lt;/span&gt;&lt;/div&gt;" style="rounded=0;whiteSpace=wrap;html=1;" vertex="1" parent="Wew5Z-_OS6r6jsYAiVlO-25">
          <mxGeometry x="20" y="200" width="150" height="40" as="geometry" />
        </mxCell>
        <mxCell id="Wew5Z-_OS6r6jsYAiVlO-30" value="&lt;b&gt;add to backet&lt;/b&gt;" style="rounded=0;whiteSpace=wrap;html=1;horizontal=1;flipV=1;flipH=0;textDirection=vertical-rl;" vertex="1" parent="Wew5Z-_OS6r6jsYAiVlO-25">
          <mxGeometry x="20" y="30" width="40" height="220" as="geometry" />
        </mxCell>
        <mxCell id="Wew5Z-_OS6r6jsYAiVlO-31" value="" style="swimlane;startSize=0;fillColor=#FFFFFF;" vertex="1" parent="1">
          <mxGeometry x="1150" y="186.25" width="190" height="270" as="geometry" />
        </mxCell>
        <mxCell id="Wew5Z-_OS6r6jsYAiVlO-32" value="&lt;b&gt;Order&lt;/b&gt;" style="text;html=1;align=center;verticalAlign=middle;whiteSpace=wrap;rounded=0;" vertex="1" parent="Wew5Z-_OS6r6jsYAiVlO-31">
          <mxGeometry x="10" width="170" height="30" as="geometry" />
        </mxCell>
        <mxCell id="Wew5Z-_OS6r6jsYAiVlO-33" value="checkout order" style="rounded=0;whiteSpace=wrap;html=1;horizontal=1;flipV=1;flipH=0;textDirection=vertical-rl;fontStyle=1" vertex="1" parent="Wew5Z-_OS6r6jsYAiVlO-31">
          <mxGeometry x="20" y="30" width="40" height="220" as="geometry" />
        </mxCell>
        <mxCell id="Wew5Z-_OS6r6jsYAiVlO-34" value="" style="ellipse;whiteSpace=wrap;html=1;aspect=fixed;" vertex="1" parent="Wew5Z-_OS6r6jsYAiVlO-31">
          <mxGeometry x="50" y="75" width="120" height="120" as="geometry" />
        </mxCell>
        <mxCell id="Wew5Z-_OS6r6jsYAiVlO-35" value="" style="ellipse;whiteSpace=wrap;html=1;aspect=fixed;" vertex="1" parent="Wew5Z-_OS6r6jsYAiVlO-31">
          <mxGeometry x="60" y="85" width="100" height="100" as="geometry" />
        </mxCell>
        <mxCell id="Wew5Z-_OS6r6jsYAiVlO-36" value="" style="ellipse;whiteSpace=wrap;html=1;aspect=fixed;" vertex="1" parent="Wew5Z-_OS6r6jsYAiVlO-31">
          <mxGeometry x="67.5" y="92.5" width="85" height="85" as="geometry" />
        </mxCell>
        <mxCell id="Wew5Z-_OS6r6jsYAiVlO-37" value="&lt;span&gt;Clean Architecture&lt;/span&gt;" style="text;html=1;align=center;verticalAlign=middle;whiteSpace=wrap;rounded=0;fontStyle=1" vertex="1" parent="Wew5Z-_OS6r6jsYAiVlO-31">
          <mxGeometry x="80" y="125" width="60" height="30" as="geometry" />
        </mxCell>
        <mxCell id="Wew5Z-_OS6r6jsYAiVlO-38" value="BackEnd" style="swimlane;whiteSpace=wrap;html=1;dashed=1;" vertex="1" parent="1">
          <mxGeometry x="700" y="127.5" width="680" height="385" as="geometry" />
        </mxCell>
        <mxCell id="Wew5Z-_OS6r6jsYAiVlO-39" value="" style="endArrow=none;html=1;rounded=0;" edge="1" parent="Wew5Z-_OS6r6jsYAiVlO-38">
          <mxGeometry width="50" height="50" relative="1" as="geometry">
            <mxPoint x="50" y="338.5" as="sourcePoint" />
            <mxPoint x="650" y="38.75" as="targetPoint" />
            <Array as="points">
              <mxPoint x="50" y="352.5" />
              <mxPoint x="90" y="352.5" />
              <mxPoint x="660" y="352.5" />
              <mxPoint x="660" y="38.75" />
            </Array>
          </mxGeometry>
        </mxCell>
        <mxCell id="Wew5Z-_OS6r6jsYAiVlO-40" value="" style="endArrow=none;html=1;rounded=0;" edge="1" parent="Wew5Z-_OS6r6jsYAiVlO-38">
          <mxGeometry width="50" height="50" relative="1" as="geometry">
            <mxPoint x="60" y="352.5" as="sourcePoint" />
            <mxPoint x="660" y="50.629999999999995" as="targetPoint" />
            <Array as="points">
              <mxPoint x="60" y="364.38" />
              <mxPoint x="100" y="364.38" />
              <mxPoint x="670" y="364.38" />
              <mxPoint x="670" y="50.629999999999995" />
            </Array>
          </mxGeometry>
        </mxCell>
        <mxCell id="Wew5Z-_OS6r6jsYAiVlO-41" value="" style="endArrow=classic;html=1;rounded=0;entryX=0.003;entryY=0.532;entryDx=0;entryDy=0;entryPerimeter=0;" edge="1" parent="1" target="Wew5Z-_OS6r6jsYAiVlO-18">
          <mxGeometry width="50" height="50" relative="1" as="geometry">
            <mxPoint x="680" y="320" as="sourcePoint" />
            <mxPoint x="730" y="300" as="targetPoint" />
          </mxGeometry>
        </mxCell>
        <mxCell id="Wew5Z-_OS6r6jsYAiVlO-42" value="" style="shape=cylinder3;whiteSpace=wrap;html=1;boundedLbl=1;backgroundOutline=1;size=15;" vertex="1" parent="1">
          <mxGeometry x="1440" y="200" width="160" height="200" as="geometry" />
        </mxCell>
        <mxCell id="Wew5Z-_OS6r6jsYAiVlO-43" value="&lt;b&gt;RDBMS&lt;/b&gt;" style="text;html=1;align=center;verticalAlign=middle;whiteSpace=wrap;rounded=0;" vertex="1" parent="1">
          <mxGeometry x="1482.5" y="260" width="75" height="30" as="geometry" />
        </mxCell>
        <mxCell id="Wew5Z-_OS6r6jsYAiVlO-44" value="&lt;b&gt;Product&lt;/b&gt;&lt;div&gt;&lt;b&gt;Schema&lt;/b&gt;&lt;/div&gt;" style="shape=cylinder3;whiteSpace=wrap;html=1;boundedLbl=1;backgroundOutline=1;size=15;" vertex="1" parent="1">
          <mxGeometry x="1440" y="310" width="70" height="90" as="geometry" />
        </mxCell>
        <mxCell id="Wew5Z-_OS6r6jsYAiVlO-45" value="&lt;b&gt;Order&lt;/b&gt;&lt;div&gt;&lt;b&gt;Schema&lt;/b&gt;&lt;/div&gt;" style="shape=cylinder3;whiteSpace=wrap;html=1;boundedLbl=1;backgroundOutline=1;size=15;" vertex="1" parent="1">
          <mxGeometry x="1530" y="310" width="70" height="90" as="geometry" />
        </mxCell>
        <mxCell id="Wew5Z-_OS6r6jsYAiVlO-46" value="" style="endArrow=classic;html=1;rounded=0;entryX=0;entryY=0.5;entryDx=0;entryDy=0;entryPerimeter=0;exitX=0.997;exitY=0.472;exitDx=0;exitDy=0;exitPerimeter=0;" edge="1" parent="1" source="Wew5Z-_OS6r6jsYAiVlO-18" target="Wew5Z-_OS6r6jsYAiVlO-42">
          <mxGeometry width="50" height="50" relative="1" as="geometry">
            <mxPoint x="1380" y="300" as="sourcePoint" />
            <mxPoint x="1160" y="190" as="targetPoint" />
          </mxGeometry>
        </mxCell>
        <mxCell id="Wew5Z-_OS6r6jsYAiVlO-47" value="&lt;b&gt;&lt;font style=&quot;font-size: 20px;&quot;&gt;TÄng tráº£i nghiá»m ngÆ°á»i dÃ¹ng vá»i SPA&lt;/font&gt;&lt;/b&gt;" style="text;html=1;align=center;verticalAlign=middle;whiteSpace=wrap;rounded=0;" vertex="1" parent="1">
          <mxGeometry x="550" y="520" width="830" height="30" as="geometry" />
        </mxCell>
      </root>
    </mxGraphModel>
  </diagram>
  <diagram name="BÃ i 3" id="vp7wiuD8zPWUnlFVP9m6">
    <mxGraphModel grid="1" page="1" gridSize="10" guides="1" tooltips="1" connect="1" arrows="1" fold="1" pageScale="1" pageWidth="850" pageHeight="1100" math="0" shadow="0">
      <root>
        <mxCell id="0" />
        <mxCell id="1" parent="0" />
        <mxCell id="h62P8C9H3Z5xvQh5RuWv-1" value="CartService" style="shape=swimlane;fontStyle=1;align=left;fillColor=#f5f5f5;fontColor=#333333;strokeColor=#666666;" vertex="1" parent="1">
          <mxGeometry x="100" y="150" width="330" height="30" as="geometry" />
        </mxCell>
        <mxCell id="h62P8C9H3Z5xvQh5RuWv-2" value="Â Â Â Â Â Â Â Â POST Â Â Â Â Â Â Â Â Â Â Â Â Â Â Â Â /cart/api/carts" style="rounded=1;fillColor=#d5e8d4;strokeColor=#82b366;align=left;" vertex="1" parent="1">
          <mxGeometry x="100" y="190" width="330" height="30" as="geometry" />
        </mxCell>
        <mxCell id="h62P8C9H3Z5xvQh5RuWv-3" value="Â Â Â Â Â Â Â Â PUT Â Â Â Â Â Â Â Â Â Â Â Â Â Â Â Â Â Â Â /cart/api/carts" style="rounded=1;fillColor=#fff2cc;strokeColor=#d6b656;align=left;" vertex="1" parent="1">
          <mxGeometry x="100" y="230" width="330" height="30" as="geometry" />
        </mxCell>
        <mxCell id="h62P8C9H3Z5xvQh5RuWv-4" value="Â Â Â Â Â Â Â Â GET Â Â Â Â Â Â Â Â Â Â Â Â Â Â Â Â Â Â Â Â /cart/api/carts/{cart_id}" style="rounded=1;fillColor=#dae8fc;strokeColor=#6c8ebf;align=left;" vertex="1" parent="1">
          <mxGeometry x="100" y="270" width="330" height="30" as="geometry" />
        </mxCell>
        <mxCell id="h62P8C9H3Z5xvQh5RuWv-5" value="Â Â Â Â Â Â Â Â PUT Â Â Â Â Â Â Â Â Â Â Â Â Â Â Â Â Â Â Â Â /cart/api/carts/{cart_id}/checkout" style="rounded=1;fillColor=#fff2cc;strokeColor=#d6b656;align=left;" vertex="1" parent="1">
          <mxGeometry x="100" y="310" width="330" height="30" as="geometry" />
        </mxCell>
        <mxCell id="h62P8C9H3Z5xvQh5RuWv-6" value="Â Â Â Â Â Â Â Â DELETEÂ  Â  Â  Â  /cart/api/carts/{cart_id}/items/{product_id}" style="rounded=1;fillColor=#f8cecc;strokeColor=#b85450;align=left;" vertex="1" parent="1">
          <mxGeometry x="100" y="350" width="330" height="30" as="geometry" />
        </mxCell>
        <mxCell id="h62P8C9H3Z5xvQh5RuWv-7" value="CatalogService" style="shape=swimlane;fontStyle=1;align=left;fillColor=#f5f5f5;fontColor=#333333;strokeColor=#666666;" vertex="1" parent="1">
          <mxGeometry x="100" y="410" width="330" height="30" as="geometry" />
        </mxCell>
        <mxCell id="h62P8C9H3Z5xvQh5RuWv-8" value="POSTÂ  Â  Â  Â  Â  Â /catalog/api/products" style="rounded=1;fillColor=#d5e8d4;strokeColor=#82b366;align=left;" vertex="1" parent="1">
          <mxGeometry x="100" y="450" width="330" height="30" as="geometry" />
        </mxCell>
        <mxCell id="h62P8C9H3Z5xvQh5RuWv-9" value="GET Â Â Â Â Â Â Â Â Â Â Â Â /catalog/api/products/{current_page}/{high_price}" style="rounded=1;fillColor=#dae8fc;strokeColor=#6c8ebf;align=left;" vertex="1" parent="1">
          <mxGeometry x="100" y="490" width="330" height="30" as="geometry" />
        </mxCell>
        <mxCell id="h62P8C9H3Z5xvQh5RuWv-10" value="GET Â Â Â Â Â Â Â Â Â Â Â Â /catalog/api/products/{product_id}" style="rounded=1;fillColor=#dae8fc;strokeColor=#6c8ebf;align=left;" vertex="1" parent="1">
          <mxGeometry x="100" y="530" width="330" height="30" as="geometry" />
        </mxCell>
        <mxCell id="h62P8C9H3Z5xvQh5RuWv-11" value="InventoryService" style="shape=swimlane;fontStyle=1;align=left;fillColor=#f5f5f5;fontColor=#333333;strokeColor=#666666;" vertex="1" parent="1">
          <mxGeometry x="100" y="600" width="330" height="30" as="geometry" />
        </mxCell>
        <mxCell id="h62P8C9H3Z5xvQh5RuWv-12" value="GET Â Â Â Â Â Â Â Â Â Â Â Â /inventory/api/availabilities" style="rounded=1;fillColor=#dae8fc;strokeColor=#6c8ebf;align=left;" vertex="1" parent="1">
          <mxGeometry x="100" y="640" width="330" height="30" as="geometry" />
        </mxCell>
        <mxCell id="h62P8C9H3Z5xvQh5RuWv-13" value="GET Â Â Â Â Â Â Â Â Â Â Â Â /inventory/api/availabilities/{id}" style="rounded=1;fillColor=#dae8fc;strokeColor=#6c8ebf;align=left;" vertex="1" parent="1">
          <mxGeometry x="100" y="680" width="330" height="30" as="geometry" />
        </mxCell>
        <mxCell id="h62P8C9H3Z5xvQh5RuWv-14" value="POST Â Â Â Â Â Â Â Â Â Â Â /inventory/api/inventory/migrate" style="rounded=1;fillColor=#d5e8d4;strokeColor=#82b366;align=left;" vertex="1" parent="1">
          <mxGeometry x="100" y="720" width="330" height="30" as="geometry" />
        </mxCell>
        <mxCell id="h62P8C9H3Z5xvQh5RuWv-15" value="RatingService" style="shape=swimlane;fontStyle=1;align=left;fillColor=#f5f5f5;fontColor=#333333;strokeColor=#666666;" vertex="1" parent="1">
          <mxGeometry x="100" y="790" width="330" height="30" as="geometry" />
        </mxCell>
        <mxCell id="h62P8C9H3Z5xvQh5RuWv-16" value="GET Â Â Â Â Â Â Â Â Â Â Â Â /rating/api/ratings" style="rounded=1;fillColor=#dae8fc;strokeColor=#6c8ebf;align=left;" vertex="1" parent="1">
          <mxGeometry x="100" y="830" width="330" height="30" as="geometry" />
        </mxCell>
        <mxCell id="h62P8C9H3Z5xvQh5RuWv-17" value="POST Â Â Â Â Â Â Â Â Â Â /rating/api/ratings" style="rounded=1;fillColor=#d5e8d4;strokeColor=#82b366;align=left;" vertex="1" parent="1">
          <mxGeometry x="100" y="870" width="330" height="30" as="geometry" />
        </mxCell>
        <mxCell id="h62P8C9H3Z5xvQh5RuWv-18" value="PUT Â Â Â Â Â Â Â Â Â Â Â Â /rating/api/ratings" style="rounded=1;fillColor=#fff2cc;strokeColor=#d6b656;align=left;" vertex="1" parent="1">
          <mxGeometry x="100" y="910" width="330" height="30" as="geometry" />
        </mxCell>
        <mxCell id="h62P8C9H3Z5xvQh5RuWv-19" value="GET Â Â Â Â Â Â Â Â Â Â Â Â /rating/api/ratings/{product_id}" style="rounded=1;fillColor=#dae8fc;strokeColor=#6c8ebf;align=left;" vertex="1" parent="1">
          <mxGeometry x="100" y="950" width="330" height="30" as="geometry" />
        </mxCell>
        <mxCell id="h62P8C9H3Z5xvQh5RuWv-23" value="" style="endArrow=none;html=1;rounded=0;" edge="1" parent="1">
          <mxGeometry width="50" height="50" relative="1" as="geometry">
            <mxPoint x="70" y="130" as="sourcePoint" />
            <mxPoint x="450" y="130" as="targetPoint" />
            <Array as="points">
              <mxPoint x="70" y="1000" />
              <mxPoint x="450" y="1000" />
            </Array>
          </mxGeometry>
        </mxCell>
        <mxCell id="h62P8C9H3Z5xvQh5RuWv-25" value="" style="endArrow=none;html=1;rounded=0;" edge="1" parent="1">
          <mxGeometry width="50" height="50" relative="1" as="geometry">
            <mxPoint x="70" y="130" as="sourcePoint" />
            <mxPoint x="450" y="130" as="targetPoint" />
          </mxGeometry>
        </mxCell>
      </root>
    </mxGraphModel>
  </diagram>
  <diagram name="Bai 4" id="tzOdHzuodOHM51xMAavZ">
    <mxGraphModel grid="1" page="1" gridSize="10" guides="1" tooltips="1" connect="1" arrows="1" fold="1" pageScale="1" pageWidth="850" pageHeight="1100" math="0" shadow="0">
      <root>
        <mxCell id="0" />
        <mxCell id="1" parent="0" />
        <mxCell id="oj9PrqpW4eeuoMockI9A-1" value="" style="rounded=0;whiteSpace=wrap;html=1;fillColor=#000099;" vertex="1" parent="1">
          <mxGeometry x="320" y="40" width="260" height="140" as="geometry" />
        </mxCell>
        <mxCell id="oj9PrqpW4eeuoMockI9A-2" value="" style="shape=actor;whiteSpace=wrap;html=1;" vertex="1" parent="1">
          <mxGeometry x="430" y="50" width="40" height="60" as="geometry" />
        </mxCell>
        <mxCell id="oj9PrqpW4eeuoMockI9A-3" value="&lt;b&gt;&lt;font style=&quot;color: rgb(255, 255, 255); font-size: 15px;&quot;&gt;Member&lt;/font&gt;&lt;/b&gt;" style="text;html=1;align=center;verticalAlign=middle;whiteSpace=wrap;rounded=0;" vertex="1" parent="1">
          <mxGeometry x="420" y="110" width="60" height="30" as="geometry" />
        </mxCell>
        <mxCell id="oj9PrqpW4eeuoMockI9A-4" value="&lt;font style=&quot;color: rgb(255, 255, 255); font-size: 14px;&quot;&gt;Organizer of meeting groups, meetings, member of group, meeting attendee&lt;/font&gt;" style="text;html=1;align=center;verticalAlign=middle;whiteSpace=wrap;rounded=0;" vertex="1" parent="1">
          <mxGeometry x="330" y="140" width="250" height="30" as="geometry" />
        </mxCell>
        <mxCell id="oj9PrqpW4eeuoMockI9A-5" value="&lt;font style=&quot;color: rgb(255, 255, 255);&quot;&gt;&lt;b&gt;My Meetings&lt;/b&gt;&lt;/font&gt;" style="rounded=0;whiteSpace=wrap;html=1;fillColor=#000066;" vertex="1" parent="1">
          <mxGeometry x="370" y="320" width="160" height="40" as="geometry" />
        </mxCell>
        <mxCell id="oj9PrqpW4eeuoMockI9A-6" value="&lt;font color=&quot;#ffffff&quot;&gt;&lt;b&gt;Payment Gateway&lt;/b&gt;&lt;/font&gt;" style="rounded=0;whiteSpace=wrap;html=1;fillColor=#B3B3B3;" vertex="1" parent="1">
          <mxGeometry x="160" y="430" width="160" height="40" as="geometry" />
        </mxCell>
        <mxCell id="oj9PrqpW4eeuoMockI9A-7" value="&lt;font color=&quot;#ffffff&quot;&gt;&lt;b&gt;Email Service&lt;/b&gt;&lt;/font&gt;" style="rounded=0;whiteSpace=wrap;html=1;fillColor=#B3B3B3;" vertex="1" parent="1">
          <mxGeometry x="670" y="350" width="160" height="40" as="geometry" />
        </mxCell>
        <mxCell id="oj9PrqpW4eeuoMockI9A-9" value="" style="rounded=0;whiteSpace=wrap;html=1;fillColor=#000099;" vertex="1" parent="1">
          <mxGeometry x="325" y="530" width="260" height="140" as="geometry" />
        </mxCell>
        <mxCell id="oj9PrqpW4eeuoMockI9A-10" value="" style="shape=actor;whiteSpace=wrap;html=1;" vertex="1" parent="1">
          <mxGeometry x="435" y="540" width="40" height="60" as="geometry" />
        </mxCell>
        <mxCell id="oj9PrqpW4eeuoMockI9A-11" value="&lt;b&gt;&lt;font style=&quot;color: rgb(255, 255, 255); font-size: 15px;&quot;&gt;Administrator&lt;/font&gt;&lt;/b&gt;" style="text;html=1;align=center;verticalAlign=middle;whiteSpace=wrap;rounded=0;" vertex="1" parent="1">
          <mxGeometry x="425" y="600" width="60" height="30" as="geometry" />
        </mxCell>
        <mxCell id="oj9PrqpW4eeuoMockI9A-12" value="&lt;font style=&quot;color: rgb(255, 255, 255); font-size: 14px;&quot;&gt;Administrator of the system&lt;/font&gt;" style="text;html=1;align=center;verticalAlign=middle;whiteSpace=wrap;rounded=0;" vertex="1" parent="1">
          <mxGeometry x="335" y="630" width="250" height="30" as="geometry" />
        </mxCell>
        <mxCell id="oj9PrqpW4eeuoMockI9A-14" value="" style="endArrow=classic;html=1;rounded=0;exitX=0.5;exitY=1;exitDx=0;exitDy=0;entryX=0.5;entryY=0;entryDx=0;entryDy=0;" edge="1" parent="1" source="oj9PrqpW4eeuoMockI9A-1" target="oj9PrqpW4eeuoMockI9A-5">
          <mxGeometry width="50" height="50" relative="1" as="geometry">
            <mxPoint x="510" y="370" as="sourcePoint" />
            <mxPoint x="560" y="320" as="targetPoint" />
          </mxGeometry>
        </mxCell>
        <mxCell id="oj9PrqpW4eeuoMockI9A-15" value="&lt;b&gt;Organize meeting groups and participate in meetings&lt;/b&gt;" style="text;html=1;align=center;verticalAlign=middle;whiteSpace=wrap;rounded=0;" vertex="1" parent="1">
          <mxGeometry x="460" y="230" width="170" height="30" as="geometry" />
        </mxCell>
        <mxCell id="oj9PrqpW4eeuoMockI9A-17" value="" style="curved=1;endArrow=classic;html=1;rounded=0;entryX=1;entryY=1;entryDx=0;entryDy=0;exitX=0.5;exitY=0;exitDx=0;exitDy=0;" edge="1" parent="1" source="oj9PrqpW4eeuoMockI9A-7" target="oj9PrqpW4eeuoMockI9A-1">
          <mxGeometry width="50" height="50" relative="1" as="geometry">
            <mxPoint x="510" y="370" as="sourcePoint" />
            <mxPoint x="560" y="320" as="targetPoint" />
            <Array as="points">
              <mxPoint x="770" y="340" />
              <mxPoint x="710" y="240" />
            </Array>
          </mxGeometry>
        </mxCell>
        <mxCell id="oj9PrqpW4eeuoMockI9A-18" value="&lt;b&gt;Send Email&lt;/b&gt;" style="text;html=1;align=center;verticalAlign=middle;whiteSpace=wrap;rounded=0;" vertex="1" parent="1">
          <mxGeometry x="710" y="240" width="80" height="30" as="geometry" />
        </mxCell>
        <mxCell id="oj9PrqpW4eeuoMockI9A-19" value="" style="endArrow=classic;html=1;rounded=0;exitX=1;exitY=1;exitDx=0;exitDy=0;" edge="1" parent="1" source="oj9PrqpW4eeuoMockI9A-5" target="oj9PrqpW4eeuoMockI9A-7">
          <mxGeometry width="50" height="50" relative="1" as="geometry">
            <mxPoint x="490" y="370" as="sourcePoint" />
            <mxPoint x="540" y="320" as="targetPoint" />
          </mxGeometry>
        </mxCell>
        <mxCell id="oj9PrqpW4eeuoMockI9A-20" value="&lt;b&gt;Request email send&lt;/b&gt;" style="text;html=1;align=center;verticalAlign=middle;whiteSpace=wrap;rounded=0;" vertex="1" parent="1">
          <mxGeometry x="540" y="330" width="120" height="30" as="geometry" />
        </mxCell>
        <mxCell id="oj9PrqpW4eeuoMockI9A-22" value="&lt;b&gt;Send Email&lt;/b&gt;" style="text;html=1;align=center;verticalAlign=middle;whiteSpace=wrap;rounded=0;" vertex="1" parent="1">
          <mxGeometry x="700" y="490" width="80" height="30" as="geometry" />
        </mxCell>
        <mxCell id="oj9PrqpW4eeuoMockI9A-23" value="" style="curved=1;endArrow=classic;html=1;rounded=0;entryX=0.75;entryY=1;entryDx=0;entryDy=0;exitX=0.5;exitY=0;exitDx=0;exitDy=0;" edge="1" parent="1" source="oj9PrqpW4eeuoMockI9A-9" target="oj9PrqpW4eeuoMockI9A-5">
          <mxGeometry width="50" height="50" relative="1" as="geometry">
            <mxPoint x="490" y="480" as="sourcePoint" />
            <mxPoint x="540" y="430" as="targetPoint" />
            <Array as="points">
              <mxPoint x="500" y="470" />
              <mxPoint x="520" y="420" />
            </Array>
          </mxGeometry>
        </mxCell>
        <mxCell id="oj9PrqpW4eeuoMockI9A-24" value="&lt;b&gt;Manage members, meeting groups, meetings&lt;/b&gt;" style="text;html=1;align=center;verticalAlign=middle;whiteSpace=wrap;rounded=0;" vertex="1" parent="1">
          <mxGeometry x="515" y="410" width="155" height="30" as="geometry" />
        </mxCell>
        <mxCell id="oj9PrqpW4eeuoMockI9A-25" value="" style="curved=1;endArrow=classic;html=1;rounded=0;entryX=1;entryY=1;entryDx=0;entryDy=0;exitX=0.568;exitY=1.037;exitDx=0;exitDy=0;exitPerimeter=0;" edge="1" parent="1" source="oj9PrqpW4eeuoMockI9A-7">
          <mxGeometry width="50" height="50" relative="1" as="geometry">
            <mxPoint x="755" y="710" as="sourcePoint" />
            <mxPoint x="585" y="540" as="targetPoint" />
            <Array as="points">
              <mxPoint x="730" y="520" />
            </Array>
          </mxGeometry>
        </mxCell>
        <mxCell id="oj9PrqpW4eeuoMockI9A-26" value="" style="curved=1;endArrow=classic;html=1;rounded=0;entryX=0.75;entryY=0;entryDx=0;entryDy=0;exitX=0.568;exitY=1.037;exitDx=0;exitDy=0;exitPerimeter=0;" edge="1" parent="1" target="oj9PrqpW4eeuoMockI9A-6">
          <mxGeometry width="50" height="50" relative="1" as="geometry">
            <mxPoint x="435" y="360" as="sourcePoint" />
            <mxPoint x="259" y="509" as="targetPoint" />
            <Array as="points">
              <mxPoint x="340" y="410" />
            </Array>
          </mxGeometry>
        </mxCell>
        <mxCell id="oj9PrqpW4eeuoMockI9A-29" value="&lt;b&gt;Delegate the payment&lt;/b&gt;" style="text;html=1;align=center;verticalAlign=middle;whiteSpace=wrap;rounded=0;" vertex="1" parent="1">
          <mxGeometry x="370" y="400" width="80" height="30" as="geometry" />
        </mxCell>
        <mxCell id="oj9PrqpW4eeuoMockI9A-30" value="" style="curved=1;endArrow=classic;html=1;rounded=0;exitX=0.5;exitY=0;exitDx=0;exitDy=0;" edge="1" parent="1" source="oj9PrqpW4eeuoMockI9A-6">
          <mxGeometry width="50" height="50" relative="1" as="geometry">
            <mxPoint x="320" y="390" as="sourcePoint" />
            <mxPoint x="370" y="340" as="targetPoint" />
            <Array as="points">
              <mxPoint x="260" y="380" />
              <mxPoint x="320" y="340" />
            </Array>
          </mxGeometry>
        </mxCell>
        <mxCell id="oj9PrqpW4eeuoMockI9A-31" value="&lt;b&gt;Return info about the payment&lt;/b&gt;" style="text;html=1;align=center;verticalAlign=middle;whiteSpace=wrap;rounded=0;" vertex="1" parent="1">
          <mxGeometry x="160" y="340" width="130" height="30" as="geometry" />
        </mxCell>
        <mxCell id="oj9PrqpW4eeuoMockI9A-32" value="" style="curved=1;endArrow=classic;html=1;rounded=0;exitX=0;exitY=0.75;exitDx=0;exitDy=0;entryX=0.25;entryY=0;entryDx=0;entryDy=0;" edge="1" parent="1" source="oj9PrqpW4eeuoMockI9A-1" target="oj9PrqpW4eeuoMockI9A-6">
          <mxGeometry width="50" height="50" relative="1" as="geometry">
            <mxPoint x="80" y="250" as="sourcePoint" />
            <mxPoint x="130" y="200" as="targetPoint" />
            <Array as="points">
              <mxPoint x="130" y="250" />
              <mxPoint x="100" y="370" />
            </Array>
          </mxGeometry>
        </mxCell>
        <mxCell id="oj9PrqpW4eeuoMockI9A-33" value="&lt;b&gt;Pay in&lt;/b&gt;" style="text;html=1;align=center;verticalAlign=middle;whiteSpace=wrap;rounded=0;" vertex="1" parent="1">
          <mxGeometry x="70" y="220" width="130" height="30" as="geometry" />
        </mxCell>
        <mxCell id="oj9PrqpW4eeuoMockI9A-35" value="&lt;h1 style=&quot;margin-top: 0px;&quot;&gt;&lt;font style=&quot;font-size: 18px;&quot;&gt;Legend&lt;/font&gt;&lt;/h1&gt;" style="text;html=1;whiteSpace=wrap;overflow=hidden;rounded=0;" vertex="1" parent="1">
          <mxGeometry x="30" y="475" width="180" height="45" as="geometry" />
        </mxCell>
        <mxCell id="oj9PrqpW4eeuoMockI9A-36" value="&lt;b&gt;&lt;font style=&quot;color: rgb(255, 255, 255); font-size: 15px;&quot;&gt;Person&lt;/font&gt;&lt;/b&gt;" style="rounded=0;whiteSpace=wrap;html=1;fillColor=#000099;align=left;" vertex="1" parent="1">
          <mxGeometry x="30" y="520" width="130" height="30" as="geometry" />
        </mxCell>
        <mxCell id="oj9PrqpW4eeuoMockI9A-37" value="&lt;font style=&quot;color: rgb(255, 255, 255); font-size: 15px;&quot;&gt;&lt;b style=&quot;&quot;&gt;System&lt;/b&gt;&lt;/font&gt;" style="rounded=0;whiteSpace=wrap;html=1;fillColor=#000066;align=left;" vertex="1" parent="1">
          <mxGeometry x="30" y="560" width="130" height="30" as="geometry" />
        </mxCell>
        <mxCell id="oj9PrqpW4eeuoMockI9A-38" value="&lt;font style=&quot;font-size: 15px;&quot; color=&quot;#ffffff&quot;&gt;&lt;b style=&quot;&quot;&gt;External system&lt;/b&gt;&lt;/font&gt;" style="rounded=0;whiteSpace=wrap;html=1;fillColor=#B3B3B3;align=left;" vertex="1" parent="1">
          <mxGeometry x="30" y="600" width="130" height="30" as="geometry" />
        </mxCell>
      </root>
    </mxGraphModel>
  </diagram>
  <diagram name="Bai 5" id="k175nvdXliX_Obcr3ZHJ">
    <mxGraphModel grid="1" page="1" gridSize="10" guides="1" tooltips="1" connect="1" arrows="1" fold="1" pageScale="1" pageWidth="850" pageHeight="1100" math="0" shadow="0">
      <root>
        <mxCell id="0" />
        <mxCell id="1" parent="0" />
        <mxCell id="5m21zyrWDsfNkvgRSb3T-21" value="" style="rounded=0;whiteSpace=wrap;html=1;dashed=1;dashPattern=8 8;" vertex="1" parent="1">
          <mxGeometry x="730" y="480" width="710" height="390" as="geometry" />
        </mxCell>
        <mxCell id="VnwmY6K1MnqR86QO9Vxa-1" value="" style="rounded=0;whiteSpace=wrap;html=1;fillColor=#000099;" vertex="1" parent="1">
          <mxGeometry x="420" y="260" width="260" height="140" as="geometry" />
        </mxCell>
        <mxCell id="VnwmY6K1MnqR86QO9Vxa-2" value="" style="shape=actor;whiteSpace=wrap;html=1;" vertex="1" parent="1">
          <mxGeometry x="530" y="270" width="40" height="60" as="geometry" />
        </mxCell>
        <mxCell id="VnwmY6K1MnqR86QO9Vxa-3" value="&lt;b&gt;&lt;font style=&quot;color: rgb(255, 255, 255); font-size: 15px;&quot;&gt;Member&lt;/font&gt;&lt;/b&gt;" style="text;html=1;align=center;verticalAlign=middle;whiteSpace=wrap;rounded=0;" vertex="1" parent="1">
          <mxGeometry x="520" y="330" width="60" height="30" as="geometry" />
        </mxCell>
        <mxCell id="VnwmY6K1MnqR86QO9Vxa-4" value="&lt;font style=&quot;color: rgb(255, 255, 255); font-size: 14px;&quot;&gt;Organizer of meeting groups, meetings, member of group, meeting attendee&lt;/font&gt;" style="text;html=1;align=center;verticalAlign=middle;whiteSpace=wrap;rounded=0;" vertex="1" parent="1">
          <mxGeometry x="430" y="360" width="250" height="30" as="geometry" />
        </mxCell>
        <mxCell id="VnwmY6K1MnqR86QO9Vxa-6" value="&lt;font color=&quot;#ffffff&quot;&gt;&lt;b&gt;Payment Gateway&lt;/b&gt;&lt;/font&gt;&lt;div&gt;&lt;font color=&quot;#ffffff&quot;&gt;&lt;b&gt;&lt;br&gt;&lt;/b&gt;&lt;/font&gt;&lt;/div&gt;&lt;div&gt;&lt;font color=&quot;#ffffff&quot;&gt;&lt;b&gt;3rd party payment service&lt;/b&gt;&lt;/font&gt;&lt;/div&gt;" style="rounded=0;whiteSpace=wrap;html=1;fillColor=#B3B3B3;" vertex="1" parent="1">
          <mxGeometry x="630" y="920" width="160" height="50" as="geometry" />
        </mxCell>
        <mxCell id="VnwmY6K1MnqR86QO9Vxa-7" value="&lt;font color=&quot;#ffffff&quot;&gt;&lt;b&gt;Email Service&lt;/b&gt;&lt;/font&gt;&lt;div&gt;&lt;br&gt;&lt;/div&gt;&lt;div&gt;&lt;font color=&quot;#ffffff&quot;&gt;&lt;b&gt;3rd party SMTP server&lt;/b&gt;&lt;/font&gt;&lt;/div&gt;" style="rounded=0;whiteSpace=wrap;html=1;fillColor=#CCCCCC;" vertex="1" parent="1">
          <mxGeometry x="470" y="755" width="160" height="50" as="geometry" />
        </mxCell>
        <mxCell id="VnwmY6K1MnqR86QO9Vxa-8" value="" style="rounded=0;whiteSpace=wrap;html=1;fillColor=#000099;" vertex="1" parent="1">
          <mxGeometry x="760" y="260" width="260" height="140" as="geometry" />
        </mxCell>
        <mxCell id="VnwmY6K1MnqR86QO9Vxa-9" value="" style="shape=actor;whiteSpace=wrap;html=1;" vertex="1" parent="1">
          <mxGeometry x="870" y="270" width="40" height="60" as="geometry" />
        </mxCell>
        <mxCell id="VnwmY6K1MnqR86QO9Vxa-10" value="&lt;b&gt;&lt;font style=&quot;color: rgb(255, 255, 255); font-size: 15px;&quot;&gt;Administrator&lt;/font&gt;&lt;/b&gt;" style="text;html=1;align=center;verticalAlign=middle;whiteSpace=wrap;rounded=0;" vertex="1" parent="1">
          <mxGeometry x="860" y="330" width="60" height="30" as="geometry" />
        </mxCell>
        <mxCell id="VnwmY6K1MnqR86QO9Vxa-11" value="&lt;font style=&quot;color: rgb(255, 255, 255); font-size: 14px;&quot;&gt;Administrator of the system&lt;/font&gt;" style="text;html=1;align=center;verticalAlign=middle;whiteSpace=wrap;rounded=0;" vertex="1" parent="1">
          <mxGeometry x="770" y="360" width="250" height="30" as="geometry" />
        </mxCell>
        <mxCell id="VnwmY6K1MnqR86QO9Vxa-28" value="&lt;h1 style=&quot;margin-top: 0px;&quot;&gt;&lt;font style=&quot;font-size: 18px;&quot;&gt;Legend&lt;/font&gt;&lt;/h1&gt;" style="text;html=1;whiteSpace=wrap;overflow=hidden;rounded=0;" vertex="1" parent="1">
          <mxGeometry x="1300" y="250" width="180" height="45" as="geometry" />
        </mxCell>
        <mxCell id="VnwmY6K1MnqR86QO9Vxa-29" value="&lt;b&gt;&lt;font style=&quot;color: rgb(255, 255, 255); font-size: 15px;&quot;&gt;Person&lt;/font&gt;&lt;/b&gt;" style="rounded=0;whiteSpace=wrap;html=1;fillColor=#000099;align=left;" vertex="1" parent="1">
          <mxGeometry x="1300" y="290" width="140" height="20" as="geometry" />
        </mxCell>
        <mxCell id="VnwmY6K1MnqR86QO9Vxa-30" value="&lt;font style=&quot;color: rgb(255, 255, 255); font-size: 15px;&quot;&gt;&lt;b style=&quot;&quot;&gt;System&lt;/b&gt;&lt;/font&gt;" style="rounded=0;whiteSpace=wrap;html=1;fillColor=#000066;align=left;" vertex="1" parent="1">
          <mxGeometry x="1300" y="320" width="140" height="20" as="geometry" />
        </mxCell>
        <mxCell id="VnwmY6K1MnqR86QO9Vxa-31" value="&lt;font style=&quot;font-size: 15px;&quot; color=&quot;#ffffff&quot;&gt;&lt;b style=&quot;&quot;&gt;External system&lt;/b&gt;&lt;/font&gt;" style="rounded=0;whiteSpace=wrap;html=1;fillColor=#B3B3B3;align=left;" vertex="1" parent="1">
          <mxGeometry x="1300" y="410" width="140" height="20" as="geometry" />
        </mxCell>
        <mxCell id="VnwmY6K1MnqR86QO9Vxa-32" value="&lt;font style=&quot;font-size: 15px;&quot; color=&quot;#ffffff&quot;&gt;&lt;b&gt;External person&lt;/b&gt;&lt;/font&gt;" style="rounded=0;whiteSpace=wrap;html=1;fillColor=#999999;align=left;" vertex="1" parent="1">
          <mxGeometry x="1300" y="380" width="140" height="20" as="geometry" />
        </mxCell>
        <mxCell id="VnwmY6K1MnqR86QO9Vxa-33" value="" style="rounded=0;whiteSpace=wrap;html=1;fillColor=#66B2FF;" vertex="1" parent="1">
          <mxGeometry x="798.75" y="520" width="210" height="120" as="geometry" />
        </mxCell>
        <mxCell id="VnwmY6K1MnqR86QO9Vxa-34" value="&lt;b&gt;&lt;font style=&quot;color: rgb(255, 255, 255); font-size: 18px;&quot;&gt;SPA&lt;/font&gt;&lt;/b&gt;" style="text;html=1;align=center;verticalAlign=middle;whiteSpace=wrap;rounded=0;" vertex="1" parent="1">
          <mxGeometry x="873.75" y="530" width="60" height="30" as="geometry" />
        </mxCell>
        <mxCell id="VnwmY6K1MnqR86QO9Vxa-35" value="&lt;font style=&quot;color: rgb(255, 255, 255); font-size: 15px;&quot;&gt;[React jS]&lt;/font&gt;&lt;div&gt;&lt;font style=&quot;color: rgb(255, 255, 255); font-size: 15px;&quot;&gt;&lt;br&gt;&lt;/font&gt;&lt;/div&gt;&lt;div&gt;&lt;font style=&quot;color: rgb(255, 255, 255); font-size: 15px;&quot;&gt;GUI for the application&lt;/font&gt;&lt;/div&gt;" style="text;html=1;align=center;verticalAlign=middle;whiteSpace=wrap;rounded=0;" vertex="1" parent="1">
          <mxGeometry x="818.75" y="580" width="167.5" height="30" as="geometry" />
        </mxCell>
        <mxCell id="VnwmY6K1MnqR86QO9Vxa-36" value="" style="rounded=0;whiteSpace=wrap;html=1;fillColor=#66B2FF;" vertex="1" parent="1">
          <mxGeometry x="800" y="720" width="210" height="120" as="geometry" />
        </mxCell>
        <mxCell id="VnwmY6K1MnqR86QO9Vxa-37" value="&lt;b&gt;&lt;font style=&quot;color: rgb(255, 255, 255); font-size: 18px;&quot;&gt;My Meeting API&lt;/font&gt;&lt;/b&gt;" style="text;html=1;align=center;verticalAlign=middle;whiteSpace=wrap;rounded=0;" vertex="1" parent="1">
          <mxGeometry x="800" y="730" width="210" height="30" as="geometry" />
        </mxCell>
        <mxCell id="VnwmY6K1MnqR86QO9Vxa-38" value="&lt;font style=&quot;color: rgb(255, 255, 255); font-size: 15px;&quot;&gt;[.Net Core]&lt;/font&gt;&lt;div&gt;&lt;font style=&quot;color: rgb(255, 255, 255); font-size: 15px;&quot;&gt;&lt;br&gt;&lt;/font&gt;&lt;/div&gt;&lt;div&gt;&lt;font style=&quot;color: rgb(255, 255, 255); font-size: 15px;&quot;&gt;Backend&lt;/font&gt;&lt;/div&gt;" style="text;html=1;align=center;verticalAlign=middle;whiteSpace=wrap;rounded=0;" vertex="1" parent="1">
          <mxGeometry x="820" y="780" width="167.5" height="30" as="geometry" />
        </mxCell>
        <mxCell id="VnwmY6K1MnqR86QO9Vxa-40" value="" style="shape=datastore;whiteSpace=wrap;html=1;fillColor=#66B2FF;" vertex="1" parent="1">
          <mxGeometry x="1170" y="700" width="210" height="160" as="geometry" />
        </mxCell>
        <mxCell id="VnwmY6K1MnqR86QO9Vxa-41" value="&lt;b&gt;&lt;font style=&quot;color: rgb(255, 255, 255); font-size: 18px;&quot;&gt;Database&lt;/font&gt;&lt;/b&gt;" style="text;html=1;align=center;verticalAlign=middle;whiteSpace=wrap;rounded=0;" vertex="1" parent="1">
          <mxGeometry x="1170" y="750" width="210" height="30" as="geometry" />
        </mxCell>
        <mxCell id="VnwmY6K1MnqR86QO9Vxa-42" value="&lt;font style=&quot;color: rgb(255, 255, 255); font-size: 15px;&quot;&gt;[Microsoft SQL]&lt;/font&gt;&lt;div&gt;&lt;font color=&quot;#ffffff&quot;&gt;&lt;span style=&quot;font-size: 15px;&quot;&gt;&lt;br&gt;&lt;/span&gt;&lt;/font&gt;&lt;div&gt;&lt;font style=&quot;color: rgb(255, 255, 255); font-size: 15px;&quot;&gt;Data about meeting groups, members, meetings, etc&lt;/font&gt;&lt;/div&gt;&lt;/div&gt;" style="text;html=1;align=center;verticalAlign=middle;whiteSpace=wrap;rounded=0;" vertex="1" parent="1">
          <mxGeometry x="1181" y="800" width="199" height="30" as="geometry" />
        </mxCell>
        <mxCell id="VnwmY6K1MnqR86QO9Vxa-43" value="" style="endArrow=classic;html=1;rounded=0;exitX=0.75;exitY=1;exitDx=0;exitDy=0;entryX=0;entryY=0;entryDx=0;entryDy=0;" edge="1" parent="1" source="VnwmY6K1MnqR86QO9Vxa-1" target="VnwmY6K1MnqR86QO9Vxa-33">
          <mxGeometry width="50" height="50" relative="1" as="geometry">
            <mxPoint x="900" y="620" as="sourcePoint" />
            <mxPoint x="940" y="680" as="targetPoint" />
          </mxGeometry>
        </mxCell>
        <mxCell id="5m21zyrWDsfNkvgRSb3T-4" value="&lt;div style=&quot;line-height: 0%;&quot;&gt;&lt;h1 style=&quot;text-align: left; margin-top: 0px;&quot;&gt;&lt;font style=&quot;font-size: 15px; color: rgb(153, 153, 153);&quot;&gt;Uses&lt;/font&gt;&lt;/h1&gt;&lt;h1 style=&quot;text-align: left; margin-top: 0px;&quot;&gt;&lt;span style=&quot;background-color: transparent; color: light-dark(rgb(153, 153, 153), rgb(106, 106, 106)); font-size: 12px; font-weight: normal;&quot;&gt;[HTTP]&lt;/span&gt;&lt;/h1&gt;&lt;/div&gt;" style="text;html=1;align=center;verticalAlign=middle;whiteSpace=wrap;rounded=0;" vertex="1" parent="1">
          <mxGeometry x="731.25" y="430" width="38.75" height="60" as="geometry" />
        </mxCell>
        <mxCell id="5m21zyrWDsfNkvgRSb3T-6" value="" style="endArrow=classic;html=1;rounded=0;exitX=0.5;exitY=1;exitDx=0;exitDy=0;entryX=0.5;entryY=0;entryDx=0;entryDy=0;" edge="1" parent="1" source="VnwmY6K1MnqR86QO9Vxa-8" target="VnwmY6K1MnqR86QO9Vxa-33">
          <mxGeometry width="50" height="50" relative="1" as="geometry">
            <mxPoint x="920" y="420" as="sourcePoint" />
            <mxPoint x="1104" y="540" as="targetPoint" />
          </mxGeometry>
        </mxCell>
        <mxCell id="5m21zyrWDsfNkvgRSb3T-7" value="&lt;div style=&quot;line-height: 0%;&quot;&gt;&lt;h1 style=&quot;text-align: left; margin-top: 0px;&quot;&gt;&lt;font style=&quot;font-size: 15px; color: rgb(153, 153, 153);&quot;&gt;Uses&lt;/font&gt;&lt;/h1&gt;&lt;h1 style=&quot;text-align: left; margin-top: 0px;&quot;&gt;&lt;span style=&quot;background-color: transparent; color: light-dark(rgb(153, 153, 153), rgb(106, 106, 106)); font-size: 12px; font-weight: normal;&quot;&gt;[HTTP]&lt;/span&gt;&lt;/h1&gt;&lt;/div&gt;" style="text;html=1;align=center;verticalAlign=middle;whiteSpace=wrap;rounded=0;" vertex="1" parent="1">
          <mxGeometry x="900" y="410" width="38.75" height="60" as="geometry" />
        </mxCell>
        <mxCell id="5m21zyrWDsfNkvgRSb3T-8" value="" style="endArrow=classic;html=1;rounded=0;exitX=0.5;exitY=1;exitDx=0;exitDy=0;" edge="1" parent="1" source="VnwmY6K1MnqR86QO9Vxa-33">
          <mxGeometry width="50" height="50" relative="1" as="geometry">
            <mxPoint x="1030" y="500" as="sourcePoint" />
            <mxPoint x="900" y="719" as="targetPoint" />
          </mxGeometry>
        </mxCell>
        <mxCell id="5m21zyrWDsfNkvgRSb3T-9" value="&lt;div style=&quot;line-height: 0%;&quot;&gt;&lt;h1 style=&quot;text-align: left; margin-top: 0px;&quot;&gt;&lt;font style=&quot;font-size: 15px; color: rgb(153, 153, 153);&quot;&gt;Uses&lt;/font&gt;&lt;/h1&gt;&lt;h1 style=&quot;text-align: left; margin-top: 0px;&quot;&gt;&lt;span style=&quot;background-color: transparent; color: light-dark(rgb(153, 153, 153), rgb(106, 106, 106)); font-size: 12px; font-weight: normal;&quot;&gt;[HTTP]&lt;/span&gt;&lt;/h1&gt;&lt;/div&gt;" style="text;html=1;align=center;verticalAlign=middle;whiteSpace=wrap;rounded=0;" vertex="1" parent="1">
          <mxGeometry x="910" y="650" width="38.75" height="60" as="geometry" />
        </mxCell>
        <mxCell id="5m21zyrWDsfNkvgRSb3T-10" value="" style="endArrow=classic;html=1;rounded=0;exitX=1;exitY=0.5;exitDx=0;exitDy=0;entryX=0;entryY=1;entryDx=0;entryDy=0;" edge="1" parent="1" source="VnwmY6K1MnqR86QO9Vxa-36" target="VnwmY6K1MnqR86QO9Vxa-41">
          <mxGeometry width="50" height="50" relative="1" as="geometry">
            <mxPoint x="990" y="650" as="sourcePoint" />
            <mxPoint x="1174" y="770" as="targetPoint" />
          </mxGeometry>
        </mxCell>
        <mxCell id="5m21zyrWDsfNkvgRSb3T-11" value="&lt;div style=&quot;line-height: 0%;&quot;&gt;&lt;h1 style=&quot;margin-top: 0px;&quot;&gt;&lt;font style=&quot;font-size: 15px; color: rgb(153, 153, 153);&quot;&gt;Reads/Writes&lt;/font&gt;&lt;/h1&gt;&lt;h1 style=&quot;margin-top: 0px;&quot;&gt;&lt;span style=&quot;background-color: transparent; color: light-dark(rgb(153, 153, 153), rgb(106, 106, 106)); font-size: 12px; font-weight: normal;&quot;&gt;[SQL]&lt;/span&gt;&lt;/h1&gt;&lt;/div&gt;" style="text;html=1;align=center;verticalAlign=middle;whiteSpace=wrap;rounded=0;" vertex="1" parent="1">
          <mxGeometry x="1050" y="730" width="90" height="60" as="geometry" />
        </mxCell>
        <mxCell id="5m21zyrWDsfNkvgRSb3T-12" value="" style="endArrow=classic;html=1;rounded=0;exitX=0.5;exitY=1;exitDx=0;exitDy=0;entryX=0.5;entryY=0;entryDx=0;entryDy=0;" edge="1" parent="1" source="VnwmY6K1MnqR86QO9Vxa-1" target="VnwmY6K1MnqR86QO9Vxa-6">
          <mxGeometry width="50" height="50" relative="1" as="geometry">
            <mxPoint x="440" y="590" as="sourcePoint" />
            <mxPoint x="600" y="590" as="targetPoint" />
          </mxGeometry>
        </mxCell>
        <mxCell id="5m21zyrWDsfNkvgRSb3T-13" value="&lt;div style=&quot;line-height: 0%;&quot;&gt;&lt;h1 style=&quot;margin-top: 0px;&quot;&gt;&lt;font style=&quot;font-size: 15px; color: rgb(153, 153, 153);&quot;&gt;Make payment via&lt;/font&gt;&lt;/h1&gt;&lt;h1 style=&quot;margin-top: 0px;&quot;&gt;&lt;span style=&quot;background-color: transparent; color: light-dark(rgb(153, 153, 153), rgb(106, 106, 106)); font-size: 12px; font-weight: normal;&quot;&gt;[HTTP]&lt;/span&gt;&lt;/h1&gt;&lt;/div&gt;" style="text;html=1;align=center;verticalAlign=middle;whiteSpace=wrap;rounded=0;" vertex="1" parent="1">
          <mxGeometry x="610" y="565" width="160" height="60" as="geometry" />
        </mxCell>
        <mxCell id="5m21zyrWDsfNkvgRSb3T-14" value="" style="endArrow=classic;html=1;rounded=0;exitX=0;exitY=0.5;exitDx=0;exitDy=0;entryX=1;entryY=0.5;entryDx=0;entryDy=0;" edge="1" parent="1" source="VnwmY6K1MnqR86QO9Vxa-36" target="VnwmY6K1MnqR86QO9Vxa-7">
          <mxGeometry width="50" height="50" relative="1" as="geometry">
            <mxPoint x="650" y="670" as="sourcePoint" />
            <mxPoint x="810" y="670" as="targetPoint" />
          </mxGeometry>
        </mxCell>
        <mxCell id="5m21zyrWDsfNkvgRSb3T-15" value="&lt;div style=&quot;line-height: 0%;&quot;&gt;&lt;h1 style=&quot;margin-top: 0px;&quot;&gt;&lt;font style=&quot;font-size: 15px; color: rgb(153, 153, 153);&quot;&gt;Sends email using&lt;/font&gt;&lt;/h1&gt;&lt;h1 style=&quot;margin-top: 0px;&quot;&gt;&lt;span style=&quot;background-color: transparent; color: light-dark(rgb(153, 153, 153), rgb(106, 106, 106)); font-size: 12px; font-weight: normal;&quot;&gt;[SMTP]&lt;/span&gt;&lt;/h1&gt;&lt;/div&gt;" style="text;html=1;align=center;verticalAlign=middle;whiteSpace=wrap;rounded=0;" vertex="1" parent="1">
          <mxGeometry x="630" y="735" width="160" height="60" as="geometry" />
        </mxCell>
        <mxCell id="5m21zyrWDsfNkvgRSb3T-19" value="" style="endArrow=classic;html=1;rounded=0;exitX=0.25;exitY=1;exitDx=0;exitDy=0;entryX=1;entryY=0.5;entryDx=0;entryDy=0;" edge="1" parent="1" source="VnwmY6K1MnqR86QO9Vxa-36" target="VnwmY6K1MnqR86QO9Vxa-6">
          <mxGeometry width="50" height="50" relative="1" as="geometry">
            <mxPoint x="660" y="760" as="sourcePoint" />
            <mxPoint x="710" y="710" as="targetPoint" />
          </mxGeometry>
        </mxCell>
        <mxCell id="5m21zyrWDsfNkvgRSb3T-20" value="&lt;div style=&quot;line-height: 0%;&quot;&gt;&lt;h1 style=&quot;margin-top: 0px;&quot;&gt;&lt;span style=&quot;background-color: transparent; color: light-dark(rgb(153, 153, 153), rgb(106, 106, 106)); font-size: 15px;&quot;&gt;Delegate the paymet&lt;/span&gt;&lt;/h1&gt;&lt;h1 style=&quot;margin-top: 0px;&quot;&gt;&lt;span style=&quot;background-color: transparent; color: light-dark(rgb(153, 153, 153), rgb(106, 106, 106)); font-size: 12px; font-weight: normal;&quot;&gt;[HTTP]&lt;/span&gt;&lt;/h1&gt;&lt;/div&gt;" style="text;html=1;align=center;verticalAlign=middle;whiteSpace=wrap;rounded=0;" vertex="1" parent="1">
          <mxGeometry x="818.75" y="870" width="185" height="60" as="geometry" />
        </mxCell>
        <mxCell id="5m21zyrWDsfNkvgRSb3T-22" value="&lt;h1 style=&quot;margin-top: 0px;&quot;&gt;My Meetings System&lt;/h1&gt;&lt;div style=&quot;text-align: center;&quot;&gt;&lt;font style=&quot;font-size: 19px;&quot;&gt;[System]&lt;/font&gt;&lt;/div&gt;" style="text;html=1;whiteSpace=wrap;overflow=hidden;rounded=0;" vertex="1" parent="1">
          <mxGeometry x="1095" y="490" width="245" height="120" as="geometry" />
        </mxCell>
        <mxCell id="5m21zyrWDsfNkvgRSb3T-23" value="&lt;b&gt;&lt;font style=&quot;color: rgb(255, 255, 255); font-size: 15px;&quot;&gt;Container&lt;/font&gt;&lt;/b&gt;" style="rounded=0;whiteSpace=wrap;html=1;fillColor=#66B2FF;align=left;" vertex="1" parent="1">
          <mxGeometry x="1300" y="350" width="140" height="20" as="geometry" />
        </mxCell>
        <mxCell id="5m21zyrWDsfNkvgRSb3T-24" value="&lt;font style=&quot;font-size: 15px;&quot; color=&quot;#ffffff&quot;&gt;&lt;b style=&quot;&quot;&gt;External container&lt;/b&gt;&lt;/font&gt;" style="rounded=0;whiteSpace=wrap;html=1;fillColor=#CCCCCC;align=left;" vertex="1" parent="1">
          <mxGeometry x="1300" y="440" width="140" height="20" as="geometry" />
        </mxCell>
      </root>
    </mxGraphModel>
  </diagram>
  <diagram name="BTUD - 1" id="7J5JtLBRcSBC6aqazfYU">
    <mxGraphModel grid="1" page="1" gridSize="10" guides="1" tooltips="1" connect="1" arrows="1" fold="1" pageScale="1" pageWidth="850" pageHeight="1100" math="0" shadow="0">
      <root>
        <mxCell id="0" />
        <mxCell id="1" parent="0" />
        <mxCell id="RK79zeEtPE7Bk4uN2B3n-1" value="" style="rounded=0;whiteSpace=wrap;html=1;fillColor=#000099;" vertex="1" parent="1">
          <mxGeometry x="470" y="70" width="260" height="140" as="geometry" />
        </mxCell>
        <mxCell id="RK79zeEtPE7Bk4uN2B3n-2" value="" style="shape=actor;whiteSpace=wrap;html=1;" vertex="1" parent="1">
          <mxGeometry x="580" y="80" width="40" height="60" as="geometry" />
        </mxCell>
        <mxCell id="RK79zeEtPE7Bk4uN2B3n-3" value="&lt;b&gt;&lt;font style=&quot;color: rgb(255, 255, 255); font-size: 15px;&quot;&gt;NgÆ°á»i Äá»c&lt;/font&gt;&lt;/b&gt;" style="text;html=1;align=center;verticalAlign=middle;whiteSpace=wrap;rounded=0;" vertex="1" parent="1">
          <mxGeometry x="555" y="140" width="90" height="30" as="geometry" />
        </mxCell>
        <mxCell id="RK79zeEtPE7Bk4uN2B3n-4" value="&lt;font style=&quot;color: rgb(255, 255, 255); font-size: 14px;&quot;&gt;Thá»±c hiá»n: tÃ¬m kiáº¿m sÃ¡ch, mÆ°á»£n, gia háº¡n, xem lá»ch sá»­ mÆ°á»£n.&lt;/font&gt;" style="text;html=1;align=center;verticalAlign=middle;whiteSpace=wrap;rounded=0;" vertex="1" parent="1">
          <mxGeometry x="480" y="170" width="250" height="30" as="geometry" />
        </mxCell>
        <mxCell id="RK79zeEtPE7Bk4uN2B3n-5" value="&lt;font style=&quot;color: rgb(255, 255, 255); font-size: 16px;&quot;&gt;&lt;b style=&quot;&quot;&gt;Há» THá»NG QUáº¢N LÃ THÆ¯ VIá»N TRá»°C TUYáº¾N&lt;/b&gt;&lt;/font&gt;" style="rounded=0;whiteSpace=wrap;html=1;fillColor=#000066;" vertex="1" parent="1">
          <mxGeometry x="400" y="440" width="400" height="40" as="geometry" />
        </mxCell>
        <mxCell id="RK79zeEtPE7Bk4uN2B3n-6" value="&lt;font color=&quot;#ffffff&quot;&gt;&lt;b&gt;Payment Gateway&lt;/b&gt;&lt;/font&gt;&lt;div&gt;&lt;font color=&quot;#ffffff&quot;&gt;&lt;b&gt;Há» thá»ng thanh toÃ¡n&lt;/b&gt;&lt;/font&gt;&lt;/div&gt;" style="rounded=0;whiteSpace=wrap;html=1;fillColor=#B3B3B3;" vertex="1" parent="1">
          <mxGeometry x="120" y="440" width="160" height="40" as="geometry" />
        </mxCell>
        <mxCell id="RK79zeEtPE7Bk4uN2B3n-7" value="&lt;font color=&quot;#ffffff&quot;&gt;&lt;b&gt;Email Service&lt;/b&gt;&lt;/font&gt;" style="rounded=0;whiteSpace=wrap;html=1;fillColor=#B3B3B3;" vertex="1" parent="1">
          <mxGeometry x="960" y="440" width="160" height="40" as="geometry" />
        </mxCell>
        <mxCell id="RK79zeEtPE7Bk4uN2B3n-8" value="" style="rounded=0;whiteSpace=wrap;html=1;fillColor=#000099;" vertex="1" parent="1">
          <mxGeometry x="470" y="660" width="260" height="140" as="geometry" />
        </mxCell>
        <mxCell id="RK79zeEtPE7Bk4uN2B3n-9" value="" style="shape=actor;whiteSpace=wrap;html=1;" vertex="1" parent="1">
          <mxGeometry x="580" y="670" width="40" height="60" as="geometry" />
        </mxCell>
        <mxCell id="RK79zeEtPE7Bk4uN2B3n-10" value="&lt;b&gt;&lt;font style=&quot;color: rgb(255, 255, 255); font-size: 15px;&quot;&gt;Thá»§ thÆ°/Administrator&lt;/font&gt;&lt;/b&gt;" style="text;html=1;align=center;verticalAlign=middle;whiteSpace=wrap;rounded=0;" vertex="1" parent="1">
          <mxGeometry x="512.5" y="730" width="175" height="30" as="geometry" />
        </mxCell>
        <mxCell id="RK79zeEtPE7Bk4uN2B3n-11" value="&lt;font style=&quot;color: rgb(255, 255, 255); font-size: 14px;&quot;&gt;Thá»±c hiá»n: quáº£n lÃ½ kho sÃ¡ch, duyá»t yÃªu cáº§u mÆ°á»£n/tráº£, theo dÃµi phÃ­ trá» háº¡n.&lt;/font&gt;" style="text;html=1;align=center;verticalAlign=middle;whiteSpace=wrap;rounded=0;" vertex="1" parent="1">
          <mxGeometry x="480" y="760" width="250" height="30" as="geometry" />
        </mxCell>
        <mxCell id="RK79zeEtPE7Bk4uN2B3n-28" value="&lt;h1 style=&quot;margin-top: 0px;&quot;&gt;&lt;font style=&quot;font-size: 18px;&quot;&gt;Legend&lt;/font&gt;&lt;/h1&gt;" style="text;html=1;whiteSpace=wrap;overflow=hidden;rounded=0;" vertex="1" parent="1">
          <mxGeometry x="160" y="605" width="180" height="45" as="geometry" />
        </mxCell>
        <mxCell id="RK79zeEtPE7Bk4uN2B3n-29" value="&lt;b&gt;&lt;font style=&quot;color: rgb(255, 255, 255); font-size: 15px;&quot;&gt;Person&lt;/font&gt;&lt;/b&gt;" style="rounded=0;whiteSpace=wrap;html=1;fillColor=#000099;align=left;" vertex="1" parent="1">
          <mxGeometry x="160" y="650" width="130" height="30" as="geometry" />
        </mxCell>
        <mxCell id="RK79zeEtPE7Bk4uN2B3n-30" value="&lt;font style=&quot;color: rgb(255, 255, 255); font-size: 15px;&quot;&gt;&lt;b style=&quot;&quot;&gt;System&lt;/b&gt;&lt;/font&gt;" style="rounded=0;whiteSpace=wrap;html=1;fillColor=#000066;align=left;" vertex="1" parent="1">
          <mxGeometry x="160" y="690" width="130" height="30" as="geometry" />
        </mxCell>
        <mxCell id="RK79zeEtPE7Bk4uN2B3n-31" value="&lt;font style=&quot;font-size: 15px;&quot; color=&quot;#ffffff&quot;&gt;&lt;b style=&quot;&quot;&gt;External system&lt;/b&gt;&lt;/font&gt;" style="rounded=0;whiteSpace=wrap;html=1;fillColor=#B3B3B3;align=left;" vertex="1" parent="1">
          <mxGeometry x="160" y="730" width="130" height="30" as="geometry" />
        </mxCell>
        <mxCell id="15wiQ9sRyny7ERoKiE9E-1" value="" style="endArrow=classic;html=1;rounded=0;exitX=0.5;exitY=1;exitDx=0;exitDy=0;entryX=0.5;entryY=0;entryDx=0;entryDy=0;" edge="1" parent="1" source="RK79zeEtPE7Bk4uN2B3n-1" target="RK79zeEtPE7Bk4uN2B3n-5">
          <mxGeometry width="50" height="50" relative="1" as="geometry">
            <mxPoint x="770" y="300" as="sourcePoint" />
            <mxPoint x="770" y="440" as="targetPoint" />
          </mxGeometry>
        </mxCell>
        <mxCell id="15wiQ9sRyny7ERoKiE9E-2" value="&lt;b&gt;TÃ¬m kiáº¿m sÃ¡ch, mÆ°á»£n sÃ¡ch online, gia háº¡n, xem lá»ch sá»­ mÆ°á»£n.&lt;/b&gt;" style="text;html=1;align=center;verticalAlign=middle;whiteSpace=wrap;rounded=0;" vertex="1" parent="1">
          <mxGeometry x="605" y="300" width="205" height="30" as="geometry" />
        </mxCell>
        <mxCell id="15wiQ9sRyny7ERoKiE9E-8" value="" style="endArrow=classic;html=1;rounded=0;entryX=0.5;entryY=1;entryDx=0;entryDy=0;exitX=0.5;exitY=0;exitDx=0;exitDy=0;" edge="1" parent="1" source="RK79zeEtPE7Bk4uN2B3n-8" target="RK79zeEtPE7Bk4uN2B3n-5">
          <mxGeometry width="50" height="50" relative="1" as="geometry">
            <mxPoint x="580" y="530" as="sourcePoint" />
            <mxPoint x="630" y="480" as="targetPoint" />
          </mxGeometry>
        </mxCell>
        <mxCell id="15wiQ9sRyny7ERoKiE9E-9" value="&lt;b&gt;Quáº£n lÃ½ kho sÃ¡ch, xá»­ lÃ½ yÃªu cáº§u mÆ°á»£n/tráº£, theo dÃµi phÃ­ trá» háº¡n&lt;/b&gt;" style="text;html=1;align=center;verticalAlign=middle;whiteSpace=wrap;rounded=0;" vertex="1" parent="1">
          <mxGeometry x="605" y="560" width="185" height="30" as="geometry" />
        </mxCell>
        <mxCell id="15wiQ9sRyny7ERoKiE9E-17" value="" style="endArrow=classic;html=1;rounded=0;entryX=0.5;entryY=0;entryDx=0;entryDy=0;exitX=0.5;exitY=1;exitDx=0;exitDy=0;" edge="1" parent="1" source="RK79zeEtPE7Bk4uN2B3n-1" target="RK79zeEtPE7Bk4uN2B3n-6">
          <mxGeometry width="50" height="50" relative="1" as="geometry">
            <mxPoint x="580" y="530" as="sourcePoint" />
            <mxPoint x="630" y="480" as="targetPoint" />
            <Array as="points" />
          </mxGeometry>
        </mxCell>
        <mxCell id="15wiQ9sRyny7ERoKiE9E-18" value="&lt;b&gt;Thanh toÃ¡n&lt;/b&gt;" style="text;html=1;align=center;verticalAlign=middle;whiteSpace=wrap;rounded=0;" vertex="1" parent="1">
          <mxGeometry x="320" y="290" width="120" height="30" as="geometry" />
        </mxCell>
        <mxCell id="15wiQ9sRyny7ERoKiE9E-20" value="" style="endArrow=classic;html=1;rounded=0;entryX=1;entryY=0;entryDx=0;entryDy=0;exitX=0;exitY=0;exitDx=0;exitDy=0;curved=1;" edge="1" parent="1" source="RK79zeEtPE7Bk4uN2B3n-5" target="RK79zeEtPE7Bk4uN2B3n-6">
          <mxGeometry width="50" height="50" relative="1" as="geometry">
            <mxPoint x="580" y="530" as="sourcePoint" />
            <mxPoint x="630" y="480" as="targetPoint" />
            <Array as="points">
              <mxPoint x="340" y="400" />
            </Array>
          </mxGeometry>
        </mxCell>
        <mxCell id="15wiQ9sRyny7ERoKiE9E-21" value="&lt;b&gt;Gá»­i yÃªu cáº§u xá»­ lÃ½ phÃ­ thÃ nh viÃªn/trá» háº¡n&lt;/b&gt;" style="text;html=1;align=center;verticalAlign=middle;whiteSpace=wrap;rounded=0;" vertex="1" parent="1">
          <mxGeometry x="280" y="390" width="150" height="30" as="geometry" />
        </mxCell>
        <mxCell id="15wiQ9sRyny7ERoKiE9E-22" value="" style="endArrow=classic;html=1;rounded=0;exitX=1;exitY=1;exitDx=0;exitDy=0;curved=1;" edge="1" parent="1" source="RK79zeEtPE7Bk4uN2B3n-6">
          <mxGeometry width="50" height="50" relative="1" as="geometry">
            <mxPoint x="580" y="530" as="sourcePoint" />
            <mxPoint x="400" y="480" as="targetPoint" />
            <Array as="points">
              <mxPoint x="340" y="510" />
            </Array>
          </mxGeometry>
        </mxCell>
        <mxCell id="15wiQ9sRyny7ERoKiE9E-23" value="&lt;b&gt;Tráº£ vá» káº¿t quáº£ thanh toÃ¡n (thÃ nh cÃ´ng/tháº¥t báº¡i)&lt;/b&gt;" style="text;html=1;align=center;verticalAlign=middle;whiteSpace=wrap;rounded=0;" vertex="1" parent="1">
          <mxGeometry x="260" y="500" width="150" height="30" as="geometry" />
        </mxCell>
        <mxCell id="15wiQ9sRyny7ERoKiE9E-24" value="" style="endArrow=classic;html=1;rounded=0;entryX=0;entryY=0;entryDx=0;entryDy=0;exitX=1;exitY=0;exitDx=0;exitDy=0;curved=1;" edge="1" parent="1" source="RK79zeEtPE7Bk4uN2B3n-5" target="RK79zeEtPE7Bk4uN2B3n-7">
          <mxGeometry width="50" height="50" relative="1" as="geometry">
            <mxPoint x="580" y="530" as="sourcePoint" />
            <mxPoint x="630" y="480" as="targetPoint" />
            <Array as="points">
              <mxPoint x="900" y="400" />
            </Array>
          </mxGeometry>
        </mxCell>
        <mxCell id="15wiQ9sRyny7ERoKiE9E-26" value="&lt;b style=&quot;forced-color-adjust: none; color: rgb(0, 0, 0); font-family: Helvetica; font-size: 12px; font-style: normal; font-variant-ligatures: normal; font-variant-caps: normal; letter-spacing: normal; orphans: 2; text-align: center; text-indent: 0px; text-transform: none; widows: 2; word-spacing: 0px; -webkit-text-stroke-width: 0px; white-space: normal; text-decoration-thickness: initial; text-decoration-style: initial; text-decoration-color: initial;&quot;&gt;YÃªu cáº§u gá»­i email nháº¯c háº¡n tráº£, phÃ­ trá» háº¡n, xÃ¡c nháº­n ÄÄng kÃ½&lt;/b&gt;" style="text;whiteSpace=wrap;html=1;" vertex="1" parent="1">
          <mxGeometry x="780" y="385" width="200" height="40" as="geometry" />
        </mxCell>
        <mxCell id="15wiQ9sRyny7ERoKiE9E-29" value="" style="endArrow=classic;html=1;rounded=0;entryX=1;entryY=0;entryDx=0;entryDy=0;exitX=0.5;exitY=1;exitDx=0;exitDy=0;" edge="1" parent="1" source="RK79zeEtPE7Bk4uN2B3n-7" target="RK79zeEtPE7Bk4uN2B3n-8">
          <mxGeometry width="50" height="50" relative="1" as="geometry">
            <mxPoint x="650" y="530" as="sourcePoint" />
            <mxPoint x="700" y="480" as="targetPoint" />
          </mxGeometry>
        </mxCell>
        <mxCell id="15wiQ9sRyny7ERoKiE9E-31" value="" style="endArrow=classic;html=1;rounded=0;entryX=1;entryY=1;entryDx=0;entryDy=0;exitX=0.5;exitY=0;exitDx=0;exitDy=0;" edge="1" parent="1" source="RK79zeEtPE7Bk4uN2B3n-7" target="RK79zeEtPE7Bk4uN2B3n-1">
          <mxGeometry width="50" height="50" relative="1" as="geometry">
            <mxPoint x="660" y="530" as="sourcePoint" />
            <mxPoint x="710" y="480" as="targetPoint" />
          </mxGeometry>
        </mxCell>
        <mxCell id="15wiQ9sRyny7ERoKiE9E-32" value="&lt;b style=&quot;forced-color-adjust: none; color: rgb(0, 0, 0); font-family: Helvetica; font-size: 12px; font-style: normal; font-variant-ligatures: normal; font-variant-caps: normal; letter-spacing: normal; orphans: 2; text-align: center; text-indent: 0px; text-transform: none; widows: 2; word-spacing: 0px; -webkit-text-stroke-width: 0px; white-space: normal; text-decoration-thickness: initial; text-decoration-style: initial; text-decoration-color: initial;&quot;&gt;Email thÃ´ng bÃ¡o&lt;/b&gt;" style="text;whiteSpace=wrap;html=1;" vertex="1" parent="1">
          <mxGeometry x="880" y="300" width="120" height="40" as="geometry" />
        </mxCell>
        <mxCell id="15wiQ9sRyny7ERoKiE9E-34" value="&lt;b style=&quot;forced-color-adjust: none; color: rgb(0, 0, 0); font-family: Helvetica; font-size: 12px; font-style: normal; font-variant-ligatures: normal; font-variant-caps: normal; letter-spacing: normal; orphans: 2; text-align: center; text-indent: 0px; text-transform: none; widows: 2; word-spacing: 0px; -webkit-text-stroke-width: 0px; white-space: normal; text-decoration-thickness: initial; text-decoration-style: initial; text-decoration-color: initial;&quot;&gt;Email thÃ´ng bÃ¡o&lt;/b&gt;" style="text;whiteSpace=wrap;html=1;" vertex="1" parent="1">
          <mxGeometry x="890" y="570" width="120" height="40" as="geometry" />
        </mxCell>
      </root>
    </mxGraphModel>
  </diagram>
  <diagram name="BTUD - 2" id="pRLG2FtXwGDHJk7NOYYj">
    <mxGraphModel grid="1" page="1" gridSize="10" guides="1" tooltips="1" connect="1" arrows="1" fold="1" pageScale="1" pageWidth="850" pageHeight="1100" math="0" shadow="0">
      <root>
        <mxCell id="0" />
        <mxCell id="1" parent="0" />
        <mxCell id="DKzbEtTuYBu0zcw84PFN-1" value="" style="rounded=0;whiteSpace=wrap;html=1;dashed=1;dashPattern=8 8;" vertex="1" parent="1">
          <mxGeometry x="460" y="460" width="1020" height="390" as="geometry" />
        </mxCell>
        <mxCell id="DKzbEtTuYBu0zcw84PFN-6" value="&lt;font color=&quot;#ffffff&quot;&gt;&lt;b&gt;Payment Gateway&lt;/b&gt;&lt;/font&gt;&lt;div&gt;&lt;font color=&quot;#ffffff&quot;&gt;&lt;b&gt;&lt;br&gt;&lt;/b&gt;&lt;/font&gt;&lt;/div&gt;&lt;div&gt;&lt;font color=&quot;#ffffff&quot;&gt;&lt;b&gt;3rd party payment service&lt;/b&gt;&lt;/font&gt;&lt;/div&gt;" style="rounded=0;whiteSpace=wrap;html=1;fillColor=#B3B3B3;" vertex="1" parent="1">
          <mxGeometry x="560" y="900" width="160" height="50" as="geometry" />
        </mxCell>
        <mxCell id="DKzbEtTuYBu0zcw84PFN-7" value="&lt;font color=&quot;#ffffff&quot;&gt;&lt;b&gt;Email Service&lt;/b&gt;&lt;/font&gt;&lt;div&gt;&lt;br&gt;&lt;/div&gt;&lt;div&gt;&lt;font color=&quot;#ffffff&quot;&gt;&lt;b&gt;3rd party SMTP server&lt;/b&gt;&lt;/font&gt;&lt;/div&gt;" style="rounded=0;whiteSpace=wrap;html=1;fillColor=#CCCCCC;" vertex="1" parent="1">
          <mxGeometry x="250" y="735" width="160" height="50" as="geometry" />
        </mxCell>
        <mxCell id="DKzbEtTuYBu0zcw84PFN-10" value="&lt;b&gt;&lt;font style=&quot;color: rgb(255, 255, 255); font-size: 15px;&quot;&gt;Administrator&lt;/font&gt;&lt;/b&gt;" style="text;html=1;align=center;verticalAlign=middle;whiteSpace=wrap;rounded=0;" vertex="1" parent="1">
          <mxGeometry x="790" y="310" width="60" height="30" as="geometry" />
        </mxCell>
        <mxCell id="DKzbEtTuYBu0zcw84PFN-11" value="&lt;font style=&quot;color: rgb(255, 255, 255); font-size: 14px;&quot;&gt;Administrator of the system&lt;/font&gt;" style="text;html=1;align=center;verticalAlign=middle;whiteSpace=wrap;rounded=0;" vertex="1" parent="1">
          <mxGeometry x="700" y="340" width="250" height="30" as="geometry" />
        </mxCell>
        <mxCell id="DKzbEtTuYBu0zcw84PFN-12" value="&lt;h1 style=&quot;margin-top: 0px;&quot;&gt;&lt;font style=&quot;font-size: 18px;&quot;&gt;Legend&lt;/font&gt;&lt;/h1&gt;" style="text;html=1;whiteSpace=wrap;overflow=hidden;rounded=0;" vertex="1" parent="1">
          <mxGeometry x="1230" y="230" width="180" height="45" as="geometry" />
        </mxCell>
        <mxCell id="DKzbEtTuYBu0zcw84PFN-13" value="&lt;b&gt;&lt;font style=&quot;color: rgb(255, 255, 255); font-size: 15px;&quot;&gt;Person&lt;/font&gt;&lt;/b&gt;" style="rounded=0;whiteSpace=wrap;html=1;fillColor=#000099;align=left;" vertex="1" parent="1">
          <mxGeometry x="1230" y="270" width="140" height="20" as="geometry" />
        </mxCell>
        <mxCell id="DKzbEtTuYBu0zcw84PFN-14" value="&lt;font style=&quot;color: rgb(255, 255, 255); font-size: 15px;&quot;&gt;&lt;b style=&quot;&quot;&gt;System&lt;/b&gt;&lt;/font&gt;" style="rounded=0;whiteSpace=wrap;html=1;fillColor=#000066;align=left;" vertex="1" parent="1">
          <mxGeometry x="1230" y="300" width="140" height="20" as="geometry" />
        </mxCell>
        <mxCell id="DKzbEtTuYBu0zcw84PFN-15" value="&lt;font style=&quot;font-size: 15px;&quot; color=&quot;#ffffff&quot;&gt;&lt;b style=&quot;&quot;&gt;External system&lt;/b&gt;&lt;/font&gt;" style="rounded=0;whiteSpace=wrap;html=1;fillColor=#B3B3B3;align=left;" vertex="1" parent="1">
          <mxGeometry x="1230" y="390" width="140" height="20" as="geometry" />
        </mxCell>
        <mxCell id="DKzbEtTuYBu0zcw84PFN-16" value="&lt;font style=&quot;font-size: 15px;&quot; color=&quot;#ffffff&quot;&gt;&lt;b&gt;External person&lt;/b&gt;&lt;/font&gt;" style="rounded=0;whiteSpace=wrap;html=1;fillColor=#999999;align=left;" vertex="1" parent="1">
          <mxGeometry x="1230" y="360" width="140" height="20" as="geometry" />
        </mxCell>
        <mxCell id="DKzbEtTuYBu0zcw84PFN-17" value="" style="rounded=0;whiteSpace=wrap;html=1;fillColor=#66B2FF;" vertex="1" parent="1">
          <mxGeometry x="770" y="500" width="240" height="120" as="geometry" />
        </mxCell>
        <mxCell id="DKzbEtTuYBu0zcw84PFN-18" value="&lt;b&gt;&lt;font style=&quot;color: rgb(255, 255, 255); font-size: 18px;&quot;&gt;WEB APPLICATION (SPA)&lt;/font&gt;&lt;/b&gt;" style="text;html=1;align=center;verticalAlign=middle;whiteSpace=wrap;rounded=0;" vertex="1" parent="1">
          <mxGeometry x="770" y="510" width="240" height="30" as="geometry" />
        </mxCell>
        <mxCell id="DKzbEtTuYBu0zcw84PFN-19" value="&lt;font style=&quot;color: rgb(255, 255, 255); font-size: 15px;&quot;&gt;[ReactJS / Angular / VueJS]&lt;/font&gt;&lt;div&gt;&lt;font style=&quot;color: rgb(255, 255, 255); font-size: 15px;&quot;&gt;&lt;br&gt;&lt;/font&gt;&lt;/div&gt;&lt;div&gt;&lt;font style=&quot;color: rgb(255, 255, 255); font-size: 15px;&quot;&gt;GUI for the application&lt;/font&gt;&lt;/div&gt;" style="text;html=1;align=center;verticalAlign=middle;whiteSpace=wrap;rounded=0;" vertex="1" parent="1">
          <mxGeometry x="770" y="560" width="240" height="30" as="geometry" />
        </mxCell>
        <mxCell id="DKzbEtTuYBu0zcw84PFN-20" value="" style="rounded=0;whiteSpace=wrap;html=1;fillColor=#66B2FF;" vertex="1" parent="1">
          <mxGeometry x="730" y="700" width="210" height="120" as="geometry" />
        </mxCell>
        <mxCell id="DKzbEtTuYBu0zcw84PFN-21" value="&lt;b&gt;&lt;font style=&quot;color: rgb(255, 255, 255); font-size: 18px;&quot;&gt;Library API&lt;/font&gt;&lt;/b&gt;" style="text;html=1;align=center;verticalAlign=middle;whiteSpace=wrap;rounded=0;" vertex="1" parent="1">
          <mxGeometry x="730" y="710" width="210" height="30" as="geometry" />
        </mxCell>
        <mxCell id="DKzbEtTuYBu0zcw84PFN-22" value="&lt;font style=&quot;color: rgb(255, 255, 255); font-size: 15px;&quot;&gt;[.NET Core / Java Spring Boot / NodeJS]&lt;/font&gt;&lt;div&gt;&lt;font style=&quot;color: rgb(255, 255, 255); font-size: 15px;&quot;&gt;&lt;br&gt;&lt;/font&gt;&lt;/div&gt;&lt;div&gt;&lt;font style=&quot;color: rgb(255, 255, 255); font-size: 15px;&quot;&gt;Backend&lt;/font&gt;&lt;/div&gt;" style="text;html=1;align=center;verticalAlign=middle;whiteSpace=wrap;rounded=0;" vertex="1" parent="1">
          <mxGeometry x="750" y="760" width="167.5" height="30" as="geometry" />
        </mxCell>
        <mxCell id="DKzbEtTuYBu0zcw84PFN-23" value="" style="shape=datastore;whiteSpace=wrap;html=1;fillColor=#66B2FF;" vertex="1" parent="1">
          <mxGeometry x="1100" y="680" width="210" height="160" as="geometry" />
        </mxCell>
        <mxCell id="DKzbEtTuYBu0zcw84PFN-24" value="&lt;b&gt;&lt;font style=&quot;color: rgb(255, 255, 255); font-size: 18px;&quot;&gt;Database&lt;/font&gt;&lt;/b&gt;" style="text;html=1;align=center;verticalAlign=middle;whiteSpace=wrap;rounded=0;" vertex="1" parent="1">
          <mxGeometry x="1100" y="730" width="210" height="30" as="geometry" />
        </mxCell>
        <mxCell id="DKzbEtTuYBu0zcw84PFN-25" value="&lt;font style=&quot;color: rgb(255, 255, 255); font-size: 15px;&quot;&gt;[MySQL / PostgreSQL]&lt;/font&gt;&lt;div&gt;&lt;font color=&quot;#ffffff&quot;&gt;&lt;span style=&quot;font-size: 15px;&quot;&gt;&lt;br&gt;&lt;/span&gt;&lt;/font&gt;&lt;div&gt;&lt;font style=&quot;color: rgb(255, 255, 255); font-size: 15px;&quot;&gt;Data: sÃ¡ch, ngÆ°á»i dÃ¹ng, giao dá»ch, lá»ch sá»­ mÆ°á»£n tráº£&lt;/font&gt;&lt;/div&gt;&lt;/div&gt;" style="text;html=1;align=center;verticalAlign=middle;whiteSpace=wrap;rounded=0;" vertex="1" parent="1">
          <mxGeometry x="1111" y="780" width="199" height="30" as="geometry" />
        </mxCell>
        <mxCell id="DKzbEtTuYBu0zcw84PFN-26" value="" style="endArrow=classic;html=1;rounded=0;exitX=0.5;exitY=1;exitDx=0;exitDy=0;entryX=0.5;entryY=0;entryDx=0;entryDy=0;" edge="1" parent="1" source="rgGxQ3ONiZFHpM01gvTn-1" target="DKzbEtTuYBu0zcw84PFN-17">
          <mxGeometry width="50" height="50" relative="1" as="geometry">
            <mxPoint x="545" y="380" as="sourcePoint" />
            <mxPoint x="870" y="660" as="targetPoint" />
          </mxGeometry>
        </mxCell>
        <mxCell id="DKzbEtTuYBu0zcw84PFN-27" value="&lt;div style=&quot;line-height: 0%;&quot;&gt;&lt;h1 style=&quot;text-align: left; margin-top: 0px;&quot;&gt;&lt;font style=&quot;font-size: 15px; color: rgb(153, 153, 153);&quot;&gt;Uses&lt;/font&gt;&lt;/h1&gt;&lt;h1 style=&quot;text-align: left; margin-top: 0px;&quot;&gt;&lt;span style=&quot;background-color: transparent; color: light-dark(rgb(153, 153, 153), rgb(106, 106, 106)); font-size: 12px; font-weight: normal;&quot;&gt;[HTTP]&lt;/span&gt;&lt;/h1&gt;&lt;/div&gt;" style="text;html=1;align=center;verticalAlign=middle;whiteSpace=wrap;rounded=0;" vertex="1" parent="1">
          <mxGeometry x="780" y="430" width="38.75" height="60" as="geometry" />
        </mxCell>
        <mxCell id="DKzbEtTuYBu0zcw84PFN-28" value="" style="endArrow=classic;html=1;rounded=0;exitX=0.5;exitY=1;exitDx=0;exitDy=0;entryX=0.5;entryY=0;entryDx=0;entryDy=0;" edge="1" parent="1" target="DKzbEtTuYBu0zcw84PFN-17">
          <mxGeometry width="50" height="50" relative="1" as="geometry">
            <mxPoint x="820" y="380" as="sourcePoint" />
            <mxPoint x="1034" y="520" as="targetPoint" />
          </mxGeometry>
        </mxCell>
        <mxCell id="DKzbEtTuYBu0zcw84PFN-29" value="&lt;div style=&quot;line-height: 0%;&quot;&gt;&lt;h1 style=&quot;text-align: left; margin-top: 0px;&quot;&gt;&lt;font style=&quot;font-size: 15px; color: rgb(153, 153, 153);&quot;&gt;Uses&lt;/font&gt;&lt;/h1&gt;&lt;h1 style=&quot;text-align: left; margin-top: 0px;&quot;&gt;&lt;span style=&quot;background-color: transparent; color: light-dark(rgb(153, 153, 153), rgb(106, 106, 106)); font-size: 12px; font-weight: normal;&quot;&gt;[HTTP]&lt;/span&gt;&lt;/h1&gt;&lt;/div&gt;" style="text;html=1;align=center;verticalAlign=middle;whiteSpace=wrap;rounded=0;" vertex="1" parent="1">
          <mxGeometry x="850" y="400" width="38.75" height="60" as="geometry" />
        </mxCell>
        <mxCell id="DKzbEtTuYBu0zcw84PFN-30" value="" style="endArrow=classic;html=1;rounded=0;exitX=0.5;exitY=1;exitDx=0;exitDy=0;" edge="1" parent="1" source="DKzbEtTuYBu0zcw84PFN-17">
          <mxGeometry width="50" height="50" relative="1" as="geometry">
            <mxPoint x="960" y="480" as="sourcePoint" />
            <mxPoint x="830" y="699" as="targetPoint" />
          </mxGeometry>
        </mxCell>
        <mxCell id="DKzbEtTuYBu0zcw84PFN-31" value="&lt;div style=&quot;line-height: 0%;&quot;&gt;&lt;h1 style=&quot;text-align: left; margin-top: 0px;&quot;&gt;&lt;font style=&quot;font-size: 15px; color: rgb(153, 153, 153);&quot;&gt;Uses&lt;/font&gt;&lt;/h1&gt;&lt;h1 style=&quot;text-align: left; margin-top: 0px;&quot;&gt;&lt;span style=&quot;background-color: transparent; color: light-dark(rgb(153, 153, 153), rgb(106, 106, 106)); font-size: 12px; font-weight: normal;&quot;&gt;[HTTP]&lt;/span&gt;&lt;/h1&gt;&lt;/div&gt;" style="text;html=1;align=center;verticalAlign=middle;whiteSpace=wrap;rounded=0;" vertex="1" parent="1">
          <mxGeometry x="800" y="630" width="38.75" height="60" as="geometry" />
        </mxCell>
        <mxCell id="DKzbEtTuYBu0zcw84PFN-32" value="" style="endArrow=classic;html=1;rounded=0;exitX=1;exitY=0.5;exitDx=0;exitDy=0;entryX=0;entryY=1;entryDx=0;entryDy=0;" edge="1" parent="1" source="DKzbEtTuYBu0zcw84PFN-20" target="DKzbEtTuYBu0zcw84PFN-24">
          <mxGeometry width="50" height="50" relative="1" as="geometry">
            <mxPoint x="920" y="630" as="sourcePoint" />
            <mxPoint x="1104" y="750" as="targetPoint" />
          </mxGeometry>
        </mxCell>
        <mxCell id="DKzbEtTuYBu0zcw84PFN-33" value="&lt;div style=&quot;line-height: 0%;&quot;&gt;&lt;h1 style=&quot;margin-top: 0px;&quot;&gt;&lt;font style=&quot;font-size: 15px; color: rgb(153, 153, 153);&quot;&gt;Reads/Writes&lt;/font&gt;&lt;/h1&gt;&lt;h1 style=&quot;margin-top: 0px;&quot;&gt;&lt;span style=&quot;background-color: transparent; color: light-dark(rgb(153, 153, 153), rgb(106, 106, 106)); font-size: 12px; font-weight: normal;&quot;&gt;[SQL]&lt;/span&gt;&lt;/h1&gt;&lt;/div&gt;" style="text;html=1;align=center;verticalAlign=middle;whiteSpace=wrap;rounded=0;" vertex="1" parent="1">
          <mxGeometry x="980" y="710" width="90" height="60" as="geometry" />
        </mxCell>
        <mxCell id="DKzbEtTuYBu0zcw84PFN-34" value="" style="endArrow=classic;html=1;rounded=0;exitX=0.269;exitY=0.991;exitDx=0;exitDy=0;entryX=0;entryY=0.5;entryDx=0;entryDy=0;exitPerimeter=0;" edge="1" parent="1" source="rgGxQ3ONiZFHpM01gvTn-1" target="DKzbEtTuYBu0zcw84PFN-6">
          <mxGeometry width="50" height="50" relative="1" as="geometry">
            <mxPoint x="480" y="380" as="sourcePoint" />
            <mxPoint x="530" y="570" as="targetPoint" />
            <Array as="points">
              <mxPoint x="440" y="925" />
            </Array>
          </mxGeometry>
        </mxCell>
        <mxCell id="DKzbEtTuYBu0zcw84PFN-35" value="&lt;div style=&quot;line-height: 0%;&quot;&gt;&lt;h1 style=&quot;margin-top: 0px;&quot;&gt;&lt;font style=&quot;font-size: 15px; color: rgb(153, 153, 153);&quot;&gt;Thanh toÃ¡n&lt;/font&gt;&lt;/h1&gt;&lt;h1 style=&quot;margin-top: 0px;&quot;&gt;&lt;span style=&quot;background-color: transparent; color: light-dark(rgb(153, 153, 153), rgb(106, 106, 106)); font-size: 12px; font-weight: normal;&quot;&gt;[HTTP]&lt;/span&gt;&lt;/h1&gt;&lt;/div&gt;" style="text;html=1;align=center;verticalAlign=middle;whiteSpace=wrap;rounded=0;" vertex="1" parent="1">
          <mxGeometry x="290" y="500" width="160" height="60" as="geometry" />
        </mxCell>
        <mxCell id="DKzbEtTuYBu0zcw84PFN-36" value="" style="endArrow=classic;html=1;rounded=0;exitX=0;exitY=0.5;exitDx=0;exitDy=0;entryX=1;entryY=0.5;entryDx=0;entryDy=0;" edge="1" parent="1" source="DKzbEtTuYBu0zcw84PFN-20" target="DKzbEtTuYBu0zcw84PFN-7">
          <mxGeometry width="50" height="50" relative="1" as="geometry">
            <mxPoint x="580" y="650" as="sourcePoint" />
            <mxPoint x="740" y="650" as="targetPoint" />
          </mxGeometry>
        </mxCell>
        <mxCell id="DKzbEtTuYBu0zcw84PFN-37" value="&lt;div style=&quot;line-height: 0%;&quot;&gt;&lt;h1 style=&quot;margin-top: 0px;&quot;&gt;&lt;font style=&quot;font-size: 15px; color: rgb(153, 153, 153);&quot;&gt;Sends email using&lt;/font&gt;&lt;/h1&gt;&lt;h1 style=&quot;margin-top: 0px;&quot;&gt;&lt;span style=&quot;background-color: transparent; color: light-dark(rgb(153, 153, 153), rgb(106, 106, 106)); font-size: 12px; font-weight: normal;&quot;&gt;[SMTP]&lt;/span&gt;&lt;/h1&gt;&lt;/div&gt;" style="text;html=1;align=center;verticalAlign=middle;whiteSpace=wrap;rounded=0;" vertex="1" parent="1">
          <mxGeometry x="250" y="690" width="160" height="60" as="geometry" />
        </mxCell>
        <mxCell id="DKzbEtTuYBu0zcw84PFN-38" value="" style="endArrow=classic;html=1;rounded=0;exitX=0.25;exitY=1;exitDx=0;exitDy=0;entryX=1;entryY=0.5;entryDx=0;entryDy=0;" edge="1" parent="1" source="DKzbEtTuYBu0zcw84PFN-20" target="DKzbEtTuYBu0zcw84PFN-6">
          <mxGeometry width="50" height="50" relative="1" as="geometry">
            <mxPoint x="590" y="740" as="sourcePoint" />
            <mxPoint x="640" y="690" as="targetPoint" />
          </mxGeometry>
        </mxCell>
        <mxCell id="DKzbEtTuYBu0zcw84PFN-39" value="&lt;div style=&quot;line-height: 0%;&quot;&gt;&lt;h1 style=&quot;margin-top: 0px;&quot;&gt;&lt;span style=&quot;background-color: transparent; font-size: 15px;&quot;&gt;&lt;font color=&quot;#999999&quot;&gt;Gá»­i yÃªu cáº§u xá»­ lÃ½ phÃ­&amp;nbsp;&lt;/font&gt;&lt;/span&gt;&lt;/h1&gt;&lt;h1 style=&quot;margin-top: 0px;&quot;&gt;&lt;span style=&quot;background-color: transparent; font-size: 15px;&quot;&gt;&lt;font color=&quot;#999999&quot;&gt;thÃ nh viÃªn/trá» háº¡n&lt;/font&gt;&lt;/span&gt;&lt;/h1&gt;&lt;h1 style=&quot;margin-top: 0px;&quot;&gt;&lt;span style=&quot;background-color: transparent; color: light-dark(rgb(153, 153, 153), rgb(106, 106, 106)); font-size: 12px; font-weight: normal;&quot;&gt;[HTTP]&lt;/span&gt;&lt;/h1&gt;&lt;/div&gt;" style="text;html=1;align=center;verticalAlign=middle;whiteSpace=wrap;rounded=0;" vertex="1" parent="1">
          <mxGeometry x="750" y="830" width="171.25" height="140" as="geometry" />
        </mxCell>
        <mxCell id="DKzbEtTuYBu0zcw84PFN-40" value="&lt;h1 style=&quot;margin-top: 0px;&quot;&gt;&lt;font style=&quot;font-size: 20px;&quot;&gt;Há» THá»NG QUáº¢N LÃ THÆ¯ VIá»N TRá»°C TUYáº¾N&lt;/font&gt;&lt;/h1&gt;&lt;div style=&quot;text-align: center;&quot;&gt;&lt;font style=&quot;font-size: 20px;&quot;&gt;[System]&lt;/font&gt;&lt;/div&gt;" style="text;html=1;whiteSpace=wrap;overflow=hidden;rounded=0;" vertex="1" parent="1">
          <mxGeometry x="1030" y="465" width="450" height="120" as="geometry" />
        </mxCell>
        <mxCell id="DKzbEtTuYBu0zcw84PFN-41" value="&lt;b&gt;&lt;font style=&quot;color: rgb(255, 255, 255); font-size: 15px;&quot;&gt;Container&lt;/font&gt;&lt;/b&gt;" style="rounded=0;whiteSpace=wrap;html=1;fillColor=#66B2FF;align=left;" vertex="1" parent="1">
          <mxGeometry x="1230" y="330" width="140" height="20" as="geometry" />
        </mxCell>
        <mxCell id="DKzbEtTuYBu0zcw84PFN-42" value="&lt;font style=&quot;font-size: 15px;&quot; color=&quot;#ffffff&quot;&gt;&lt;b style=&quot;&quot;&gt;External container&lt;/b&gt;&lt;/font&gt;" style="rounded=0;whiteSpace=wrap;html=1;fillColor=#CCCCCC;align=left;" vertex="1" parent="1">
          <mxGeometry x="1230" y="420" width="140" height="20" as="geometry" />
        </mxCell>
        <mxCell id="C33Myhu_t5rrFD_xkGof-1" value="" style="rounded=0;whiteSpace=wrap;html=1;fillColor=#000099;" vertex="1" parent="1">
          <mxGeometry x="690" y="240" width="260" height="140" as="geometry" />
        </mxCell>
        <mxCell id="C33Myhu_t5rrFD_xkGof-2" value="" style="shape=actor;whiteSpace=wrap;html=1;" vertex="1" parent="1">
          <mxGeometry x="800" y="250" width="40" height="60" as="geometry" />
        </mxCell>
        <mxCell id="C33Myhu_t5rrFD_xkGof-3" value="&lt;b&gt;&lt;font style=&quot;color: rgb(255, 255, 255); font-size: 15px;&quot;&gt;Thá»§ thÆ°/Administrator&lt;/font&gt;&lt;/b&gt;" style="text;html=1;align=center;verticalAlign=middle;whiteSpace=wrap;rounded=0;" vertex="1" parent="1">
          <mxGeometry x="732.5" y="310" width="175" height="30" as="geometry" />
        </mxCell>
        <mxCell id="C33Myhu_t5rrFD_xkGof-4" value="&lt;font style=&quot;color: rgb(255, 255, 255); font-size: 14px;&quot;&gt;Thá»±c hiá»n: quáº£n lÃ½ kho sÃ¡ch, duyá»t yÃªu cáº§u mÆ°á»£n/tráº£, theo dÃµi phÃ­ trá» háº¡n.&lt;/font&gt;" style="text;html=1;align=center;verticalAlign=middle;whiteSpace=wrap;rounded=0;" vertex="1" parent="1">
          <mxGeometry x="700" y="340" width="250" height="30" as="geometry" />
        </mxCell>
        <mxCell id="rgGxQ3ONiZFHpM01gvTn-1" value="" style="rounded=0;whiteSpace=wrap;html=1;fillColor=#000099;" vertex="1" parent="1">
          <mxGeometry x="370" y="250" width="260" height="140" as="geometry" />
        </mxCell>
        <mxCell id="rgGxQ3ONiZFHpM01gvTn-2" value="" style="shape=actor;whiteSpace=wrap;html=1;" vertex="1" parent="1">
          <mxGeometry x="480" y="260" width="40" height="60" as="geometry" />
        </mxCell>
        <mxCell id="rgGxQ3ONiZFHpM01gvTn-3" value="&lt;b&gt;&lt;font style=&quot;color: rgb(255, 255, 255); font-size: 15px;&quot;&gt;NgÆ°á»i Äá»c&lt;/font&gt;&lt;/b&gt;" style="text;html=1;align=center;verticalAlign=middle;whiteSpace=wrap;rounded=0;" vertex="1" parent="1">
          <mxGeometry x="455" y="320" width="90" height="30" as="geometry" />
        </mxCell>
        <mxCell id="rgGxQ3ONiZFHpM01gvTn-4" value="&lt;font style=&quot;color: rgb(255, 255, 255); font-size: 14px;&quot;&gt;Thá»±c hiá»n: tÃ¬m kiáº¿m sÃ¡ch, mÆ°á»£n, gia háº¡n, xem lá»ch sá»­ mÆ°á»£n.&lt;/font&gt;" style="text;html=1;align=center;verticalAlign=middle;whiteSpace=wrap;rounded=0;" vertex="1" parent="1">
          <mxGeometry x="380" y="350" width="250" height="30" as="geometry" />
        </mxCell>
        <mxCell id="rgGxQ3ONiZFHpM01gvTn-6" value="" style="rounded=0;whiteSpace=wrap;html=1;fillColor=#66B2FF;" vertex="1" parent="1">
          <mxGeometry x="490" y="500" width="240" height="120" as="geometry" />
        </mxCell>
        <mxCell id="rgGxQ3ONiZFHpM01gvTn-7" value="&lt;b&gt;&lt;font style=&quot;color: rgb(255, 255, 255); font-size: 18px;&quot;&gt;MOBILE APPLICATION&amp;nbsp;&lt;/font&gt;&lt;/b&gt;" style="text;html=1;align=center;verticalAlign=middle;whiteSpace=wrap;rounded=0;" vertex="1" parent="1">
          <mxGeometry x="490" y="510" width="240" height="30" as="geometry" />
        </mxCell>
        <mxCell id="rgGxQ3ONiZFHpM01gvTn-8" value="&lt;font style=&quot;color: rgb(255, 255, 255); font-size: 15px;&quot;&gt;[Flutter / React Native]&lt;/font&gt;&lt;div&gt;&lt;font style=&quot;color: rgb(255, 255, 255); font-size: 15px;&quot;&gt;&lt;br&gt;&lt;/font&gt;&lt;/div&gt;&lt;div&gt;&lt;font style=&quot;color: rgb(255, 255, 255); font-size: 15px;&quot;&gt;GUI for the application&lt;/font&gt;&lt;/div&gt;" style="text;html=1;align=center;verticalAlign=middle;whiteSpace=wrap;rounded=0;" vertex="1" parent="1">
          <mxGeometry x="490" y="560" width="240" height="30" as="geometry" />
        </mxCell>
        <mxCell id="Of3EGV3ds5mvhTi8tN1z-2" value="" style="endArrow=classic;html=1;rounded=0;exitX=0.5;exitY=1;exitDx=0;exitDy=0;entryX=0.25;entryY=0;entryDx=0;entryDy=0;" edge="1" parent="1" source="rgGxQ3ONiZFHpM01gvTn-6" target="DKzbEtTuYBu0zcw84PFN-20">
          <mxGeometry width="50" height="50" relative="1" as="geometry">
            <mxPoint x="1090" y="1070" as="sourcePoint" />
            <mxPoint x="1030" y="1149" as="targetPoint" />
          </mxGeometry>
        </mxCell>
        <mxCell id="Of3EGV3ds5mvhTi8tN1z-3" value="&lt;div style=&quot;line-height: 0%;&quot;&gt;&lt;h1 style=&quot;margin-top: 0px;&quot;&gt;&lt;font style=&quot;font-size: 15px; color: rgb(153, 153, 153);&quot;&gt;Uses&lt;/font&gt;&lt;/h1&gt;&lt;h1 style=&quot;margin-top: 0px;&quot;&gt;&lt;span style=&quot;background-color: transparent; font-size: 12px; font-weight: 400;&quot;&gt;&lt;font color=&quot;#999999&quot;&gt;Uses [HTTPS/REST]&lt;/font&gt;&lt;/span&gt;&lt;/h1&gt;&lt;/div&gt;" style="text;html=1;align=center;verticalAlign=middle;whiteSpace=wrap;rounded=0;" vertex="1" parent="1">
          <mxGeometry x="570" y="650" width="120" height="60" as="geometry" />
        </mxCell>
        <mxCell id="Of3EGV3ds5mvhTi8tN1z-4" value="" style="endArrow=classic;html=1;rounded=0;exitX=0.5;exitY=1;exitDx=0;exitDy=0;entryX=0.5;entryY=0;entryDx=0;entryDy=0;" edge="1" parent="1" source="C33Myhu_t5rrFD_xkGof-1" target="rgGxQ3ONiZFHpM01gvTn-6">
          <mxGeometry width="50" height="50" relative="1" as="geometry">
            <mxPoint x="540" y="430" as="sourcePoint" />
            <mxPoint x="765" y="550" as="targetPoint" />
          </mxGeometry>
        </mxCell>
        <mxCell id="Of3EGV3ds5mvhTi8tN1z-5" value="&lt;div style=&quot;line-height: 0%;&quot;&gt;&lt;h1 style=&quot;text-align: left; margin-top: 0px;&quot;&gt;&lt;font style=&quot;font-size: 15px; color: rgb(153, 153, 153);&quot;&gt;Uses&lt;/font&gt;&lt;/h1&gt;&lt;h1 style=&quot;text-align: left; margin-top: 0px;&quot;&gt;&lt;span style=&quot;background-color: transparent; color: light-dark(rgb(153, 153, 153), rgb(106, 106, 106)); font-size: 12px; font-weight: normal;&quot;&gt;[IOS/Android APP]&lt;/span&gt;&lt;/h1&gt;&lt;/div&gt;" style="text;html=1;align=center;verticalAlign=middle;whiteSpace=wrap;rounded=0;" vertex="1" parent="1">
          <mxGeometry x="460" y="410" width="120" height="60" as="geometry" />
        </mxCell>
        <mxCell id="Of3EGV3ds5mvhTi8tN1z-8" value="" style="endArrow=classic;html=1;rounded=0;exitX=0.5;exitY=1;exitDx=0;exitDy=0;entryX=0.5;entryY=0;entryDx=0;entryDy=0;" edge="1" parent="1" source="rgGxQ3ONiZFHpM01gvTn-1" target="rgGxQ3ONiZFHpM01gvTn-6">
          <mxGeometry width="50" height="50" relative="1" as="geometry">
            <mxPoint x="650" y="490" as="sourcePoint" />
            <mxPoint x="700" y="440" as="targetPoint" />
          </mxGeometry>
        </mxCell>
        <mxCell id="Of3EGV3ds5mvhTi8tN1z-9" value="&lt;div style=&quot;line-height: 0%;&quot;&gt;&lt;h1 style=&quot;text-align: left; margin-top: 0px;&quot;&gt;&lt;font style=&quot;font-size: 15px; color: rgb(153, 153, 153);&quot;&gt;Uses&lt;/font&gt;&lt;/h1&gt;&lt;h1 style=&quot;text-align: left; margin-top: 0px;&quot;&gt;&lt;span style=&quot;background-color: transparent; color: light-dark(rgb(153, 153, 153), rgb(106, 106, 106)); font-size: 12px; font-weight: normal;&quot;&gt;[IOS/Android APP]&lt;/span&gt;&lt;/h1&gt;&lt;/div&gt;" style="text;html=1;align=center;verticalAlign=middle;whiteSpace=wrap;rounded=0;" vertex="1" parent="1">
          <mxGeometry x="660" y="460" width="120" height="60" as="geometry" />
        </mxCell>
      </root>
    </mxGraphModel>
  </diagram>
  <diagram name="BTUD - 3" id="HUcWgFEM0UBTHSzWUUhk">
    <mxGraphModel grid="1" page="1" gridSize="10" guides="1" tooltips="1" connect="1" arrows="1" fold="1" pageScale="1" pageWidth="850" pageHeight="1100" math="0" shadow="0">
      <root>
        <mxCell id="0" />
        <mxCell id="1" parent="0" />
        <mxCell id="r4e1vHfF076-2u0slWTZ-1" value="" style="rounded=0;whiteSpace=wrap;html=1;" vertex="1" parent="1">
          <mxGeometry x="-40" y="250" width="1760" height="960" as="geometry" />
        </mxCell>
        <mxCell id="r4e1vHfF076-2u0slWTZ-2" value="&lt;div&gt;&lt;b style=&quot;&quot;&gt;&lt;font style=&quot;font-size: 19px;&quot;&gt;Há» THá»NG QUáº¢N LÃ THÆ¯ VIá»N TRá»°C TUYáº¾N&lt;/font&gt;&lt;/b&gt;&lt;/div&gt;&lt;div&gt;&lt;b style=&quot;&quot;&gt;&lt;font style=&quot;font-size: 19px;&quot;&gt;[System]&lt;/font&gt;&lt;/b&gt;&lt;/div&gt;" style="rounded=0;whiteSpace=wrap;html=1;dashed=1;dashPattern=12 12;verticalAlign=top;" vertex="1" parent="1">
          <mxGeometry x="-20" y="270" width="1720" height="906" as="geometry" />
        </mxCell>
        <mxCell id="r4e1vHfF076-2u0slWTZ-3" value="&lt;b style=&quot;&quot;&gt;&lt;font style=&quot;font-size: 15px;&quot;&gt;&lt;span style=&quot;white-space: pre;&quot;&gt;&#x9;&lt;/span&gt;&lt;span style=&quot;white-space: pre;&quot;&gt;&#x9;&lt;/span&gt;&lt;span style=&quot;white-space: pre;&quot;&gt;&#x9;&lt;/span&gt;&lt;span style=&quot;white-space: pre;&quot;&gt;&#x9;&lt;/span&gt;Library API&lt;span style=&quot;white-space: pre;&quot;&gt;&#x9;&lt;/span&gt;&lt;span style=&quot;white-space: pre;&quot;&gt;&#x9;&lt;/span&gt;&lt;span style=&quot;white-space: pre;&quot;&gt;&#x9;&lt;/span&gt;&lt;span style=&quot;white-space: pre;&quot;&gt;&#x9;&lt;/span&gt;&lt;/font&gt;&lt;/b&gt;" style="rounded=0;whiteSpace=wrap;html=1;dashed=1;dashPattern=12 12;verticalAlign=top;" vertex="1" parent="1">
          <mxGeometry x="20" y="488" width="1660" height="644" as="geometry" />
        </mxCell>
        <mxCell id="r4e1vHfF076-2u0slWTZ-4" value="&lt;font style=&quot;font-size: 15px;&quot;&gt;&lt;b style=&quot;&quot;&gt;&lt;span style=&quot;white-space: pre;&quot;&gt;&#x9;&lt;/span&gt;&lt;span style=&quot;white-space: pre;&quot;&gt;&#x9;&lt;/span&gt;&lt;span style=&quot;white-space: pre;&quot;&gt;&#x9;&lt;/span&gt;DATABASE&lt;span style=&quot;white-space: pre;&quot;&gt;&#x9;&lt;/span&gt;&lt;/b&gt;&lt;/font&gt;" style="rounded=0;whiteSpace=wrap;html=1;dashed=1;dashPattern=12 12;verticalAlign=top;" vertex="1" parent="1">
          <mxGeometry x="70" y="919" width="1310" height="180" as="geometry" />
        </mxCell>
        <mxCell id="r4e1vHfF076-2u0slWTZ-5" value="Legend" style="shape=table;startSize=30;container=1;collapsible=0;childLayout=tableLayout;fontSize=16;align=left;verticalAlign=top;fillColor=none;strokeColor=none;fontColor=#4D4D4D;fontStyle=1;spacingLeft=6;spacing=0;resizable=0;" vertex="1" parent="1">
          <mxGeometry x="50" y="500" width="180" height="209.0689444706358" as="geometry" />
        </mxCell>
        <mxCell id="r4e1vHfF076-2u0slWTZ-6" value="" style="shape=tableRow;horizontal=0;startSize=0;swimlaneHead=0;swimlaneBody=0;strokeColor=inherit;top=0;left=0;bottom=0;right=0;collapsible=0;dropTarget=0;fillColor=none;points=[[0,0.5],[1,0.5]];portConstraint=eastwest;fontSize=12;" vertex="1" parent="r4e1vHfF076-2u0slWTZ-5">
          <mxGeometry y="30" width="180" height="30" as="geometry" />
        </mxCell>
        <mxCell id="r4e1vHfF076-2u0slWTZ-7" value="Person" style="shape=partialRectangle;html=1;whiteSpace=wrap;connectable=0;strokeColor=inherit;overflow=hidden;fillColor=#1E4074;top=0;left=0;bottom=0;right=0;pointerEvents=1;fontSize=12;align=left;fontColor=#FFFFFF;gradientColor=none;spacingLeft=10;spacingRight=4;" vertex="1" parent="r4e1vHfF076-2u0slWTZ-6">
          <mxGeometry width="180" height="30" as="geometry">
            <mxRectangle width="180" height="30" as="alternateBounds" />
          </mxGeometry>
        </mxCell>
        <mxCell id="r4e1vHfF076-2u0slWTZ-8" value="" style="shape=tableRow;horizontal=0;startSize=0;swimlaneHead=0;swimlaneBody=0;strokeColor=inherit;top=0;left=0;bottom=0;right=0;collapsible=0;dropTarget=0;fillColor=none;points=[[0,0.5],[1,0.5]];portConstraint=eastwest;fontSize=12;" vertex="1" parent="r4e1vHfF076-2u0slWTZ-5">
          <mxGeometry y="60" width="180" height="30" as="geometry" />
        </mxCell>
        <mxCell id="r4e1vHfF076-2u0slWTZ-9" value="Software System" style="shape=partialRectangle;html=1;whiteSpace=wrap;connectable=0;strokeColor=inherit;overflow=hidden;fillColor=#3162AF;top=0;left=0;bottom=0;right=0;pointerEvents=1;fontSize=12;align=left;fontColor=#FFFFFF;gradientColor=none;spacingLeft=10;spacingRight=4;" vertex="1" parent="r4e1vHfF076-2u0slWTZ-8">
          <mxGeometry width="180" height="30" as="geometry">
            <mxRectangle width="180" height="30" as="alternateBounds" />
          </mxGeometry>
        </mxCell>
        <mxCell id="r4e1vHfF076-2u0slWTZ-10" value="" style="shape=tableRow;horizontal=0;startSize=0;swimlaneHead=0;swimlaneBody=0;strokeColor=inherit;top=0;left=0;bottom=0;right=0;collapsible=0;dropTarget=0;fillColor=none;points=[[0,0.5],[1,0.5]];portConstraint=eastwest;fontSize=12;" vertex="1" parent="r4e1vHfF076-2u0slWTZ-5">
          <mxGeometry y="90" width="180" height="30" as="geometry" />
        </mxCell>
        <mxCell id="r4e1vHfF076-2u0slWTZ-11" value="Container" style="shape=partialRectangle;html=1;whiteSpace=wrap;connectable=0;strokeColor=inherit;overflow=hidden;fillColor=#52a2d8;top=0;left=0;bottom=0;right=0;pointerEvents=1;fontSize=12;align=left;fontColor=#FFFFFF;gradientColor=none;spacingLeft=10;spacingRight=4;" vertex="1" parent="r4e1vHfF076-2u0slWTZ-10">
          <mxGeometry width="180" height="30" as="geometry">
            <mxRectangle width="180" height="30" as="alternateBounds" />
          </mxGeometry>
        </mxCell>
        <mxCell id="r4e1vHfF076-2u0slWTZ-12" value="" style="shape=tableRow;horizontal=0;startSize=0;swimlaneHead=0;swimlaneBody=0;strokeColor=inherit;top=0;left=0;bottom=0;right=0;collapsible=0;dropTarget=0;fillColor=none;points=[[0,0.5],[1,0.5]];portConstraint=eastwest;fontSize=12;" vertex="1" parent="r4e1vHfF076-2u0slWTZ-5">
          <mxGeometry y="120" width="180" height="30" as="geometry" />
        </mxCell>
        <mxCell id="r4e1vHfF076-2u0slWTZ-13" value="Component" style="shape=partialRectangle;html=1;whiteSpace=wrap;connectable=0;strokeColor=inherit;overflow=hidden;fillColor=#7dbef2;top=0;left=0;bottom=0;right=0;pointerEvents=1;fontSize=12;align=left;fontColor=#FFFFFF;gradientColor=none;spacingLeft=10;spacingRight=4;" vertex="1" parent="r4e1vHfF076-2u0slWTZ-12">
          <mxGeometry width="180" height="30" as="geometry">
            <mxRectangle width="180" height="30" as="alternateBounds" />
          </mxGeometry>
        </mxCell>
        <mxCell id="r4e1vHfF076-2u0slWTZ-14" value="" style="shape=tableRow;horizontal=0;startSize=0;swimlaneHead=0;swimlaneBody=0;strokeColor=inherit;top=0;left=0;bottom=0;right=0;collapsible=0;dropTarget=0;fillColor=none;points=[[0,0.5],[1,0.5]];portConstraint=eastwest;fontSize=12;" vertex="1" parent="r4e1vHfF076-2u0slWTZ-5">
          <mxGeometry y="150" width="180" height="29" as="geometry" />
        </mxCell>
        <mxCell id="r4e1vHfF076-2u0slWTZ-15" value="External Person" style="shape=partialRectangle;html=1;whiteSpace=wrap;connectable=0;strokeColor=inherit;overflow=hidden;fillColor=#6b6477;top=0;left=0;bottom=0;right=0;pointerEvents=1;fontSize=12;align=left;fontColor=#FFFFFF;gradientColor=none;spacingLeft=10;spacingRight=4;" vertex="1" parent="r4e1vHfF076-2u0slWTZ-14">
          <mxGeometry width="180" height="29" as="geometry">
            <mxRectangle width="180" height="29" as="alternateBounds" />
          </mxGeometry>
        </mxCell>
        <mxCell id="r4e1vHfF076-2u0slWTZ-16" value="" style="shape=tableRow;horizontal=0;startSize=0;swimlaneHead=0;swimlaneBody=0;strokeColor=inherit;top=0;left=0;bottom=0;right=0;collapsible=0;dropTarget=0;fillColor=none;points=[[0,0.5],[1,0.5]];portConstraint=eastwest;fontSize=12;" vertex="1" parent="r4e1vHfF076-2u0slWTZ-5">
          <mxGeometry y="179" width="180" height="30" as="geometry" />
        </mxCell>
        <mxCell id="r4e1vHfF076-2u0slWTZ-17" value="External Software System" style="shape=partialRectangle;html=1;whiteSpace=wrap;connectable=0;strokeColor=inherit;overflow=hidden;fillColor=#8b8496;top=0;left=0;bottom=0;right=0;pointerEvents=1;fontSize=12;align=left;fontColor=#FFFFFF;gradientColor=none;spacingLeft=10;spacingRight=4;" vertex="1" parent="r4e1vHfF076-2u0slWTZ-16">
          <mxGeometry width="180" height="30" as="geometry">
            <mxRectangle width="180" height="30" as="alternateBounds" />
          </mxGeometry>
        </mxCell>
        <mxCell id="r4e1vHfF076-2u0slWTZ-18" value="Uses&lt;div&gt;[HTTP]&lt;/div&gt;" style="edgeStyle=orthogonalEdgeStyle;rounded=0;orthogonalLoop=1;jettySize=auto;html=1;" edge="1" parent="1" source="r4e1vHfF076-2u0slWTZ-19" target="r4e1vHfF076-2u0slWTZ-25">
          <mxGeometry x="-0.4533" y="25" relative="1" as="geometry">
            <mxPoint y="-1" as="offset" />
          </mxGeometry>
        </mxCell>
        <mxCell id="r4e1vHfF076-2u0slWTZ-19" value="&lt;font style=&quot;font-size: 14px;&quot;&gt;&lt;b&gt;SPA&lt;/b&gt;&lt;/font&gt;&lt;div&gt;&lt;i&gt;[ReacJS]&lt;/i&gt;&lt;/div&gt;&lt;div&gt;&lt;br&gt;&lt;/div&gt;&lt;div&gt;GUI for the application&lt;/div&gt;" style="rounded=0;whiteSpace=wrap;html=1;fillColor=light-dark(#52a2d8, #198cc4);fontColor=#ffffff;strokeColor=#006EAF;" vertex="1" parent="1">
          <mxGeometry x="1053" y="351" width="162" height="85" as="geometry" />
        </mxCell>
        <mxCell id="r4e1vHfF076-2u0slWTZ-21" value="&#xa;&lt;span style=&quot;color: rgb(0, 0, 0); font-family: Helvetica; font-size: 11px; font-style: normal; font-variant-ligatures: normal; font-variant-caps: normal; font-weight: 400; letter-spacing: normal; orphans: 2; text-align: center; text-indent: 0px; text-transform: none; widows: 2; word-spacing: 0px; -webkit-text-stroke-width: 0px; white-space: nowrap; background-color: rgb(255, 255, 255); text-decoration-thickness: initial; text-decoration-style: initial; text-decoration-color: initial; display: inline !important; float: none;&quot;&gt;Uses&lt;/span&gt;&#xa;&#xa;" style="rounded=0;orthogonalLoop=1;jettySize=auto;html=1;exitX=0.5;exitY=1;exitDx=0;exitDy=0;" edge="1" parent="1" source="r4e1vHfF076-2u0slWTZ-25" target="r4e1vHfF076-2u0slWTZ-30">
          <mxGeometry x="0.0971" y="4" relative="1" as="geometry">
            <mxPoint as="offset" />
          </mxGeometry>
        </mxCell>
        <mxCell id="r4e1vHfF076-2u0slWTZ-22" value="Uses" style="rounded=0;orthogonalLoop=1;jettySize=auto;html=1;exitX=0.5;exitY=1;exitDx=0;exitDy=0;" edge="1" parent="1" source="r4e1vHfF076-2u0slWTZ-25" target="r4e1vHfF076-2u0slWTZ-29">
          <mxGeometry x="-0.3295" relative="1" as="geometry">
            <mxPoint as="offset" />
          </mxGeometry>
        </mxCell>
        <mxCell id="r4e1vHfF076-2u0slWTZ-23" value="&#xa;&lt;span style=&quot;color: rgb(0, 0, 0); font-family: Helvetica; font-size: 11px; font-style: normal; font-variant-ligatures: normal; font-variant-caps: normal; font-weight: 400; letter-spacing: normal; orphans: 2; text-align: center; text-indent: 0px; text-transform: none; widows: 2; word-spacing: 0px; -webkit-text-stroke-width: 0px; white-space: nowrap; background-color: rgb(255, 255, 255); text-decoration-thickness: initial; text-decoration-style: initial; text-decoration-color: initial; display: inline !important; float: none;&quot;&gt;Uses&lt;/span&gt;&#xa;&#xa;" style="rounded=0;orthogonalLoop=1;jettySize=auto;html=1;entryX=0.5;entryY=0;entryDx=0;entryDy=0;exitX=0.5;exitY=1;exitDx=0;exitDy=0;" edge="1" parent="1" source="r4e1vHfF076-2u0slWTZ-25" target="r4e1vHfF076-2u0slWTZ-33">
          <mxGeometry x="0.1536" y="-9" relative="1" as="geometry">
            <mxPoint as="offset" />
          </mxGeometry>
        </mxCell>
        <mxCell id="r4e1vHfF076-2u0slWTZ-24" value="&#xa;&lt;span style=&quot;color: rgb(0, 0, 0); font-family: Helvetica; font-size: 11px; font-style: normal; font-variant-ligatures: normal; font-variant-caps: normal; font-weight: 400; letter-spacing: normal; orphans: 2; text-align: center; text-indent: 0px; text-transform: none; widows: 2; word-spacing: 0px; -webkit-text-stroke-width: 0px; white-space: nowrap; background-color: rgb(255, 255, 255); text-decoration-thickness: initial; text-decoration-style: initial; text-decoration-color: initial; display: inline !important; float: none;&quot;&gt;Uses&lt;/span&gt;&#xa;&#xa;" style="rounded=0;orthogonalLoop=1;jettySize=auto;html=1;exitX=0.5;exitY=1;exitDx=0;exitDy=0;" edge="1" parent="1" source="r4e1vHfF076-2u0slWTZ-25" target="r4e1vHfF076-2u0slWTZ-35">
          <mxGeometry x="0.0236" y="-3" relative="1" as="geometry">
            <mxPoint as="offset" />
            <mxPoint x="800" y="600" as="sourcePoint" />
          </mxGeometry>
        </mxCell>
        <mxCell id="r4e1vHfF076-2u0slWTZ-25" value="&lt;b&gt;&lt;font style=&quot;font-size: 14px;&quot;&gt;API&lt;/font&gt;&lt;br&gt;&lt;/b&gt;&lt;div&gt;&lt;i&gt;[.NET Core API]&lt;/i&gt;&lt;/div&gt;" style="rounded=0;whiteSpace=wrap;html=1;fillColor=light-dark(#7dbef2, #198cc4);fontColor=#330000;strokeColor=#006EAF;" vertex="1" parent="1">
          <mxGeometry x="733" y="530" width="117" height="62" as="geometry" />
        </mxCell>
        <mxCell id="r4e1vHfF076-2u0slWTZ-26" value="" style="edgeStyle=orthogonalEdgeStyle;rounded=0;orthogonalLoop=1;jettySize=auto;html=1;" edge="1" parent="1" source="r4e1vHfF076-2u0slWTZ-29" target="r4e1vHfF076-2u0slWTZ-30">
          <mxGeometry relative="1" as="geometry" />
        </mxCell>
        <mxCell id="r4e1vHfF076-2u0slWTZ-27" value="Uses" style="edgeLabel;html=1;align=center;verticalAlign=middle;resizable=0;points=[];" connectable="0" vertex="1" parent="r4e1vHfF076-2u0slWTZ-26">
          <mxGeometry x="0.125" y="1" relative="1" as="geometry">
            <mxPoint x="-8" y="-10" as="offset" />
          </mxGeometry>
        </mxCell>
        <mxCell id="r4e1vHfF076-2u0slWTZ-28" value="Store / retrieve" style="rounded=0;orthogonalLoop=1;jettySize=auto;html=1;entryX=0.5;entryY=0;entryDx=0;entryDy=0;entryPerimeter=0;" edge="1" parent="1" source="r4e1vHfF076-2u0slWTZ-29" target="r4e1vHfF076-2u0slWTZ-37">
          <mxGeometry x="0.7792" y="-1" relative="1" as="geometry">
            <mxPoint as="offset" />
          </mxGeometry>
        </mxCell>
        <mxCell id="r4e1vHfF076-2u0slWTZ-29" value="&lt;b&gt;&lt;span style=&quot;font-size: 14px;&quot;&gt;Registrations&lt;/span&gt;&lt;br&gt;&lt;/b&gt;&lt;div&gt;&lt;i&gt;[.NET Libraries]&lt;/i&gt;&lt;/div&gt;" style="rounded=0;whiteSpace=wrap;html=1;fillColor=light-dark(#7dbef2, #198cc4);fontColor=#330000;strokeColor=#006EAF;" vertex="1" parent="1">
          <mxGeometry x="330" y="736.5" width="117" height="63" as="geometry" />
        </mxCell>
        <mxCell id="r4e1vHfF076-2u0slWTZ-30" value="&lt;div&gt;&lt;span style=&quot;font-size: 14px;&quot;&gt;&lt;b&gt;User Access&lt;/b&gt;&lt;/span&gt;&lt;/div&gt;&lt;div&gt;&lt;i&gt;[&lt;/i&gt;&lt;i&gt;.NET Libraries]&lt;/i&gt;&lt;/div&gt;" style="rounded=0;whiteSpace=wrap;html=1;fillColor=light-dark(#7dbef2, #198cc4);fontColor=#330000;strokeColor=#006EAF;" vertex="1" parent="1">
          <mxGeometry x="579" y="736.5" width="117" height="62" as="geometry" />
        </mxCell>
        <mxCell id="r4e1vHfF076-2u0slWTZ-31" value="&lt;div&gt;&lt;span style=&quot;font-size: 14px;&quot;&gt;&lt;b&gt;Borrowing/Returning&lt;/b&gt;&lt;/span&gt;&lt;/div&gt;&lt;div&gt;&lt;i style=&quot;background-color: transparent; color: light-dark(rgb(51, 0, 0), rgb(255, 218, 218));&quot;&gt;[&lt;/i&gt;&lt;i style=&quot;background-color: transparent; color: light-dark(rgb(51, 0, 0), rgb(255, 218, 218));&quot;&gt;.NET Libraries]&lt;/i&gt;&lt;/div&gt;" style="rounded=0;whiteSpace=wrap;html=1;fillColor=light-dark(#7dbef2, #198cc4);fontColor=#330000;strokeColor=#006EAF;" vertex="1" parent="1">
          <mxGeometry x="760" y="736.5" width="154.5" height="62" as="geometry" />
        </mxCell>
        <mxCell id="r4e1vHfF076-2u0slWTZ-32" value="Store / retrieve" style="rounded=0;orthogonalLoop=1;jettySize=auto;html=1;" edge="1" parent="1" source="r4e1vHfF076-2u0slWTZ-33" target="r4e1vHfF076-2u0slWTZ-39">
          <mxGeometry x="0.8567" y="-4" relative="1" as="geometry">
            <mxPoint as="offset" />
          </mxGeometry>
        </mxCell>
        <mxCell id="r4e1vHfF076-2u0slWTZ-33" value="&lt;b&gt;&lt;font style=&quot;font-size: 14px;&quot;&gt;Administration&lt;br&gt;&lt;/font&gt;&lt;/b&gt;&lt;div&gt;&lt;i&gt;[.NET Libraries]&lt;/i&gt;&lt;/div&gt;" style="rounded=0;whiteSpace=wrap;html=1;fillColor=light-dark(#7dbef2, #198cc4);fontColor=#330000;strokeColor=#006EAF;" vertex="1" parent="1">
          <mxGeometry x="1170" y="737.5" width="117" height="62" as="geometry" />
        </mxCell>
        <mxCell id="r4e1vHfF076-2u0slWTZ-34" value="Store / retrieve" style="rounded=0;orthogonalLoop=1;jettySize=auto;html=1;" edge="1" parent="1" source="r4e1vHfF076-2u0slWTZ-35" target="r4e1vHfF076-2u0slWTZ-41">
          <mxGeometry x="0.8368" y="2" relative="1" as="geometry">
            <mxPoint as="offset" />
          </mxGeometry>
        </mxCell>
        <mxCell id="r4e1vHfF076-2u0slWTZ-35" value="&lt;b&gt;Payments&lt;br&gt;&lt;/b&gt;&lt;div&gt;&lt;i&gt;[.NET Libraries]&lt;/i&gt;&lt;b&gt;&lt;/b&gt;&lt;/div&gt;" style="rounded=0;whiteSpace=wrap;html=1;fillColor=light-dark(#7dbef2, #198cc4);fontColor=#330000;strokeColor=#006EAF;" vertex="1" parent="1">
          <mxGeometry x="1380" y="737.5" width="117" height="62" as="geometry" />
        </mxCell>
        <mxCell id="r4e1vHfF076-2u0slWTZ-36" style="edgeStyle=orthogonalEdgeStyle;rounded=0;orthogonalLoop=1;jettySize=auto;html=1;exitX=0.5;exitY=1;exitDx=0;exitDy=0;" edge="1" parent="1" source="r4e1vHfF076-2u0slWTZ-30" target="r4e1vHfF076-2u0slWTZ-30">
          <mxGeometry relative="1" as="geometry" />
        </mxCell>
        <mxCell id="r4e1vHfF076-2u0slWTZ-37" value="&lt;b style=&quot;color: rgb(51, 0, 0);&quot;&gt;&lt;span style=&quot;font-size: 14px;&quot;&gt;Registrations Data&lt;/span&gt;&lt;/b&gt;&lt;div&gt;&lt;font color=&quot;#330000&quot;&gt;&lt;span style=&quot;font-size: 14px;&quot;&gt;&lt;i&gt;[Schema]&lt;/i&gt;&lt;/span&gt;&lt;/font&gt;&lt;/div&gt;" style="shape=cylinder3;whiteSpace=wrap;html=1;boundedLbl=1;backgroundOutline=1;size=15;fillColor=light-dark(#7dbef2, #ededed);strokeColor=#FFFFFF;" vertex="1" parent="1">
          <mxGeometry x="110" y="992.13" width="177" height="80" as="geometry" />
        </mxCell>
        <mxCell id="r4e1vHfF076-2u0slWTZ-38" value="&lt;div style=&quot;color: rgb(51, 0, 0);&quot;&gt;&lt;span style=&quot;font-size: 14px;&quot;&gt;&lt;b&gt;User Access Data&lt;/b&gt;&lt;/span&gt;&lt;/div&gt;&lt;div style=&quot;color: rgb(51, 0, 0);&quot;&gt;&lt;i style=&quot;font-size: 14px;&quot;&gt;[Schema]&lt;/i&gt;&lt;span style=&quot;font-size: 14px;&quot;&gt;&lt;b&gt;&lt;/b&gt;&lt;/span&gt;&lt;/div&gt;" style="shape=cylinder3;whiteSpace=wrap;html=1;boundedLbl=1;backgroundOutline=1;size=15;fillColor=light-dark(#7dbef2, #ededed);strokeColor=#FFFFFF;" vertex="1" parent="1">
          <mxGeometry x="330" y="992.13" width="177" height="80" as="geometry" />
        </mxCell>
        <mxCell id="r4e1vHfF076-2u0slWTZ-39" value="&lt;b style=&quot;color: rgb(51, 0, 0);&quot;&gt;&lt;font style=&quot;font-size: 14px;&quot;&gt;Administration Data&lt;/font&gt;&lt;/b&gt;&lt;div&gt;&lt;b style=&quot;color: rgb(51, 0, 0);&quot;&gt;&lt;font style=&quot;font-size: 14px;&quot;&gt;&lt;i style=&quot;font-weight: 400;&quot;&gt;[Schema]&lt;/i&gt;&lt;/font&gt;&lt;/b&gt;&lt;/div&gt;" style="shape=cylinder3;whiteSpace=wrap;html=1;boundedLbl=1;backgroundOutline=1;size=15;fillColor=light-dark(#7dbef2, #ededed);strokeColor=#FFFFFF;" vertex="1" parent="1">
          <mxGeometry x="958" y="992.13" width="177" height="80" as="geometry" />
        </mxCell>
        <mxCell id="r4e1vHfF076-2u0slWTZ-40" value="&lt;b style=&quot;color: rgb(51, 0, 0); font-size: 14px;&quot;&gt;Loans Data&amp;nbsp;&lt;/b&gt;&lt;div&gt;&lt;b style=&quot;color: rgb(51, 0, 0); font-size: 14px;&quot;&gt;&lt;i style=&quot;font-weight: 400;&quot;&gt;[Schema]&lt;/i&gt;&lt;/b&gt;&lt;/div&gt;" style="shape=cylinder3;whiteSpace=wrap;html=1;boundedLbl=1;backgroundOutline=1;size=15;fillColor=light-dark(#7dbef2, #ededed);strokeColor=#FFFFFF;" vertex="1" parent="1">
          <mxGeometry x="549" y="992.13" width="177" height="80" as="geometry" />
        </mxCell>
        <mxCell id="r4e1vHfF076-2u0slWTZ-41" value="&lt;b style=&quot;color: rgb(51, 0, 0);&quot;&gt;Payments Data&lt;/b&gt;&lt;div&gt;&lt;b style=&quot;color: rgb(51, 0, 0);&quot;&gt;&lt;i style=&quot;font-size: 14px; font-weight: 400;&quot;&gt;[Schema]&lt;/i&gt;&lt;/b&gt;&lt;/div&gt;" style="shape=cylinder3;whiteSpace=wrap;html=1;boundedLbl=1;backgroundOutline=1;size=15;fillColor=light-dark(#7dbef2, #ededed);strokeColor=#FFFFFF;" vertex="1" parent="1">
          <mxGeometry x="1158" y="992.13" width="177" height="80" as="geometry" />
        </mxCell>
        <mxCell id="r4e1vHfF076-2u0slWTZ-42" value="&lt;font&gt;&lt;b&gt;Events Bus&lt;/b&gt;&lt;/font&gt;&lt;div&gt;&lt;i&gt;&lt;font style=&quot;font-size: 12px;&quot;&gt;[In memory]&lt;/font&gt;&lt;/i&gt;&lt;/div&gt;" style="shape=cylinder3;whiteSpace=wrap;html=1;boundedLbl=1;backgroundOutline=1;size=15;fillColor=light-dark(#7dbef2, #ededed);strokeColor=#FFFFFF;rotation=90;horizontal=0;fontSize=14;" vertex="1" parent="1">
          <mxGeometry x="1480" y="892.38" width="78" height="179.75" as="geometry" />
        </mxCell>
        <mxCell id="r4e1vHfF076-2u0slWTZ-43" value="Store / retrieve" style="rounded=0;orthogonalLoop=1;jettySize=auto;html=1;entryX=0.5;entryY=0;entryDx=0;entryDy=0;entryPerimeter=0;" edge="1" parent="1" source="r4e1vHfF076-2u0slWTZ-30" target="r4e1vHfF076-2u0slWTZ-38">
          <mxGeometry x="0.7882" y="4" relative="1" as="geometry">
            <mxPoint as="offset" />
          </mxGeometry>
        </mxCell>
        <mxCell id="r4e1vHfF076-2u0slWTZ-44" value="Store / retrieve" style="rounded=0;orthogonalLoop=1;jettySize=auto;html=1;entryX=0.5;entryY=0;entryDx=0;entryDy=0;entryPerimeter=0;" edge="1" parent="1" source="r4e1vHfF076-2u0slWTZ-31" target="r4e1vHfF076-2u0slWTZ-40">
          <mxGeometry x="0.7484" y="4" relative="1" as="geometry">
            <mxPoint as="offset" />
          </mxGeometry>
        </mxCell>
        <mxCell id="r4e1vHfF076-2u0slWTZ-45" value="Publishes event to /&#xa;subscribes" style="edgeStyle=orthogonalEdgeStyle;rounded=0;orthogonalLoop=1;jettySize=auto;html=1;entryX=0.5;entryY=0;entryDx=0;entryDy=0;entryPerimeter=0;" edge="1" parent="1" source="r4e1vHfF076-2u0slWTZ-35" target="r4e1vHfF076-2u0slWTZ-42">
          <mxGeometry x="-0.5682" y="-27" relative="1" as="geometry">
            <Array as="points">
              <mxPoint x="1650" y="769" />
              <mxPoint x="1650" y="982" />
            </Array>
            <mxPoint as="offset" />
          </mxGeometry>
        </mxCell>
        <mxCell id="r4e1vHfF076-2u0slWTZ-46" value="&#xa;&lt;span style=&quot;color: rgb(0, 0, 0); font-family: Helvetica; font-size: 11px; font-style: normal; font-variant-ligatures: normal; font-variant-caps: normal; font-weight: 400; letter-spacing: normal; orphans: 2; text-align: center; text-indent: 0px; text-transform: none; widows: 2; word-spacing: 0px; -webkit-text-stroke-width: 0px; white-space: nowrap; background-color: rgb(255, 255, 255); text-decoration-thickness: initial; text-decoration-style: initial; text-decoration-color: initial; display: inline !important; float: none;&quot;&gt;Publishes event to /&lt;/span&gt;&lt;br style=&quot;forced-color-adjust: none; color: rgb(0, 0, 0); font-family: Helvetica; font-size: 11px; font-style: normal; font-variant-ligatures: normal; font-variant-caps: normal; font-weight: 400; letter-spacing: normal; orphans: 2; text-align: center; text-indent: 0px; text-transform: none; widows: 2; word-spacing: 0px; -webkit-text-stroke-width: 0px; white-space: nowrap; text-decoration-thickness: initial; text-decoration-style: initial; text-decoration-color: initial;&quot;&gt;&lt;span style=&quot;color: rgb(0, 0, 0); font-family: Helvetica; font-size: 11px; font-style: normal; font-variant-ligatures: normal; font-variant-caps: normal; font-weight: 400; letter-spacing: normal; orphans: 2; text-align: center; text-indent: 0px; text-transform: none; widows: 2; word-spacing: 0px; -webkit-text-stroke-width: 0px; white-space: nowrap; background-color: rgb(255, 255, 255); text-decoration-thickness: initial; text-decoration-style: initial; text-decoration-color: initial; display: inline !important; float: none;&quot;&gt;subscribes&lt;/span&gt;&#xa;&#xa;" style="rounded=0;orthogonalLoop=1;jettySize=auto;html=1;entryX=0;entryY=0;entryDx=0;entryDy=15;entryPerimeter=0;" edge="1" parent="1" source="r4e1vHfF076-2u0slWTZ-33" target="r4e1vHfF076-2u0slWTZ-42">
          <mxGeometry x="0.0142" y="-1" relative="1" as="geometry">
            <mxPoint as="offset" />
          </mxGeometry>
        </mxCell>
        <mxCell id="r4e1vHfF076-2u0slWTZ-47" value="&#xa;&lt;span style=&quot;color: rgb(0, 0, 0); font-family: Helvetica; font-size: 11px; font-style: normal; font-variant-ligatures: normal; font-variant-caps: normal; font-weight: 400; letter-spacing: normal; orphans: 2; text-align: center; text-indent: 0px; text-transform: none; widows: 2; word-spacing: 0px; -webkit-text-stroke-width: 0px; white-space: nowrap; background-color: rgb(255, 255, 255); text-decoration-thickness: initial; text-decoration-style: initial; text-decoration-color: initial; display: inline !important; float: none;&quot;&gt;Publishes event to /&lt;/span&gt;&lt;br style=&quot;forced-color-adjust: none; color: rgb(0, 0, 0); font-family: Helvetica; font-size: 11px; font-style: normal; font-variant-ligatures: normal; font-variant-caps: normal; font-weight: 400; letter-spacing: normal; orphans: 2; text-align: center; text-indent: 0px; text-transform: none; widows: 2; word-spacing: 0px; -webkit-text-stroke-width: 0px; white-space: nowrap; text-decoration-thickness: initial; text-decoration-style: initial; text-decoration-color: initial;&quot;&gt;&lt;span style=&quot;color: rgb(0, 0, 0); font-family: Helvetica; font-size: 11px; font-style: normal; font-variant-ligatures: normal; font-variant-caps: normal; font-weight: 400; letter-spacing: normal; orphans: 2; text-align: center; text-indent: 0px; text-transform: none; widows: 2; word-spacing: 0px; -webkit-text-stroke-width: 0px; white-space: nowrap; background-color: rgb(255, 255, 255); text-decoration-thickness: initial; text-decoration-style: initial; text-decoration-color: initial; display: inline !important; float: none;&quot;&gt;subscribes&lt;/span&gt;&#xa;&#xa;" style="rounded=0;orthogonalLoop=1;jettySize=auto;html=1;entryX=0;entryY=0.5;entryDx=0;entryDy=0;entryPerimeter=0;exitX=1;exitY=1;exitDx=0;exitDy=0;" edge="1" parent="1" source="r4e1vHfF076-2u0slWTZ-31" target="r4e1vHfF076-2u0slWTZ-42">
          <mxGeometry x="-0.3158" y="-3" relative="1" as="geometry">
            <mxPoint as="offset" />
            <mxPoint x="920" y="800" as="sourcePoint" />
          </mxGeometry>
        </mxCell>
        <mxCell id="r4e1vHfF076-2u0slWTZ-48" value="&#xa;&lt;span style=&quot;color: rgb(0, 0, 0); font-family: Helvetica; font-size: 11px; font-style: normal; font-variant-ligatures: normal; font-variant-caps: normal; font-weight: 400; letter-spacing: normal; orphans: 2; text-align: center; text-indent: 0px; text-transform: none; widows: 2; word-spacing: 0px; -webkit-text-stroke-width: 0px; white-space: nowrap; background-color: rgb(255, 255, 255); text-decoration-thickness: initial; text-decoration-style: initial; text-decoration-color: initial; display: inline !important; float: none;&quot;&gt;Publishes event to /&lt;/span&gt;&lt;br style=&quot;forced-color-adjust: none; color: rgb(0, 0, 0); font-family: Helvetica; font-size: 11px; font-style: normal; font-variant-ligatures: normal; font-variant-caps: normal; font-weight: 400; letter-spacing: normal; orphans: 2; text-align: center; text-indent: 0px; text-transform: none; widows: 2; word-spacing: 0px; -webkit-text-stroke-width: 0px; white-space: nowrap; text-decoration-thickness: initial; text-decoration-style: initial; text-decoration-color: initial;&quot;&gt;&lt;span style=&quot;color: rgb(0, 0, 0); font-family: Helvetica; font-size: 11px; font-style: normal; font-variant-ligatures: normal; font-variant-caps: normal; font-weight: 400; letter-spacing: normal; orphans: 2; text-align: center; text-indent: 0px; text-transform: none; widows: 2; word-spacing: 0px; -webkit-text-stroke-width: 0px; white-space: nowrap; background-color: rgb(255, 255, 255); text-decoration-thickness: initial; text-decoration-style: initial; text-decoration-color: initial; display: inline !important; float: none;&quot;&gt;subscribes&lt;/span&gt;&#xa;&#xa;" style="rounded=0;orthogonalLoop=1;jettySize=auto;html=1;entryX=0.145;entryY=1;entryDx=0;entryDy=-4.35;entryPerimeter=0;" edge="1" parent="1" source="r4e1vHfF076-2u0slWTZ-30" target="r4e1vHfF076-2u0slWTZ-42">
          <mxGeometry x="-0.4043" y="-10" relative="1" as="geometry">
            <mxPoint as="offset" />
          </mxGeometry>
        </mxCell>
        <mxCell id="r4e1vHfF076-2u0slWTZ-49" value="&#xa;&lt;span style=&quot;color: rgb(0, 0, 0); font-family: Helvetica; font-size: 11px; font-style: normal; font-variant-ligatures: normal; font-variant-caps: normal; font-weight: 400; letter-spacing: normal; orphans: 2; text-align: center; text-indent: 0px; text-transform: none; widows: 2; word-spacing: 0px; -webkit-text-stroke-width: 0px; white-space: nowrap; background-color: rgb(255, 255, 255); text-decoration-thickness: initial; text-decoration-style: initial; text-decoration-color: initial; display: inline !important; float: none;&quot;&gt;Publishes event to /&lt;/span&gt;&lt;br style=&quot;forced-color-adjust: none; color: rgb(0, 0, 0); font-family: Helvetica; font-size: 11px; font-style: normal; font-variant-ligatures: normal; font-variant-caps: normal; font-weight: 400; letter-spacing: normal; orphans: 2; text-align: center; text-indent: 0px; text-transform: none; widows: 2; word-spacing: 0px; -webkit-text-stroke-width: 0px; white-space: nowrap; text-decoration-thickness: initial; text-decoration-style: initial; text-decoration-color: initial;&quot;&gt;&lt;span style=&quot;color: rgb(0, 0, 0); font-family: Helvetica; font-size: 11px; font-style: normal; font-variant-ligatures: normal; font-variant-caps: normal; font-weight: 400; letter-spacing: normal; orphans: 2; text-align: center; text-indent: 0px; text-transform: none; widows: 2; word-spacing: 0px; -webkit-text-stroke-width: 0px; white-space: nowrap; background-color: rgb(255, 255, 255); text-decoration-thickness: initial; text-decoration-style: initial; text-decoration-color: initial; display: inline !important; float: none;&quot;&gt;subscribes&lt;/span&gt;&#xa;&#xa;" style="rounded=0;orthogonalLoop=1;jettySize=auto;html=1;entryX=0.855;entryY=1;entryDx=0;entryDy=-4.35;entryPerimeter=0;" edge="1" parent="1" source="r4e1vHfF076-2u0slWTZ-29" target="r4e1vHfF076-2u0slWTZ-42">
          <mxGeometry x="-0.5899" y="-12" relative="1" as="geometry">
            <mxPoint as="offset" />
          </mxGeometry>
        </mxCell>
        <mxCell id="pcHqlZRaP4U1WEdwjbR_-1" value="&#xa;&lt;span style=&quot;color: rgb(0, 0, 0); font-family: Helvetica; font-size: 11px; font-style: normal; font-variant-ligatures: normal; font-variant-caps: normal; font-weight: 400; letter-spacing: normal; orphans: 2; text-align: center; text-indent: 0px; text-transform: none; widows: 2; word-spacing: 0px; -webkit-text-stroke-width: 0px; white-space: nowrap; background-color: rgb(255, 255, 255); text-decoration-thickness: initial; text-decoration-style: initial; text-decoration-color: initial; display: inline !important; float: none;&quot;&gt;Uses&lt;/span&gt;&#xa;&#xa;" style="rounded=0;orthogonalLoop=1;jettySize=auto;html=1;exitX=0.5;exitY=1;exitDx=0;exitDy=0;entryX=0.5;entryY=0;entryDx=0;entryDy=0;" edge="1" parent="1" source="r4e1vHfF076-2u0slWTZ-25" target="r4e1vHfF076-2u0slWTZ-31">
          <mxGeometry x="0.0971" y="4" relative="1" as="geometry">
            <mxPoint as="offset" />
            <mxPoint x="1299" y="670" as="sourcePoint" />
            <mxPoint x="1040" y="796" as="targetPoint" />
          </mxGeometry>
        </mxCell>
        <mxCell id="pcHqlZRaP4U1WEdwjbR_-2" value="&lt;div&gt;&lt;span style=&quot;font-size: 14px;&quot;&gt;&lt;b&gt;Catalog/Search&lt;/b&gt;&lt;/span&gt;&lt;/div&gt;&lt;div&gt;&lt;i style=&quot;background-color: transparent; color: light-dark(rgb(51, 0, 0), rgb(255, 218, 218));&quot;&gt;[&lt;/i&gt;&lt;i style=&quot;background-color: transparent; color: light-dark(rgb(51, 0, 0), rgb(255, 218, 218));&quot;&gt;.NET Libraries]&lt;/i&gt;&lt;/div&gt;" style="rounded=0;whiteSpace=wrap;html=1;fillColor=light-dark(#7dbef2, #198cc4);fontColor=#330000;strokeColor=#006EAF;" vertex="1" parent="1">
          <mxGeometry x="958" y="736.5" width="154.5" height="62" as="geometry" />
        </mxCell>
        <mxCell id="pcHqlZRaP4U1WEdwjbR_-3" value="Store / retrieve" style="rounded=0;orthogonalLoop=1;jettySize=auto;html=1;entryX=0.5;entryY=0;entryDx=0;entryDy=0;entryPerimeter=0;exitX=0.5;exitY=1;exitDx=0;exitDy=0;" edge="1" parent="1" source="pcHqlZRaP4U1WEdwjbR_-2" target="pcHqlZRaP4U1WEdwjbR_-6">
          <mxGeometry x="0.7484" y="4" relative="1" as="geometry">
            <mxPoint as="offset" />
            <mxPoint x="1053" y="986.64" as="targetPoint" />
            <mxPoint x="1040" y="800" as="sourcePoint" />
          </mxGeometry>
        </mxCell>
        <mxCell id="pcHqlZRaP4U1WEdwjbR_-4" value="&#xa;&lt;span style=&quot;color: rgb(0, 0, 0); font-family: Helvetica; font-size: 11px; font-style: normal; font-variant-ligatures: normal; font-variant-caps: normal; font-weight: 400; letter-spacing: normal; orphans: 2; text-align: center; text-indent: 0px; text-transform: none; widows: 2; word-spacing: 0px; -webkit-text-stroke-width: 0px; white-space: nowrap; background-color: rgb(255, 255, 255); text-decoration-thickness: initial; text-decoration-style: initial; text-decoration-color: initial; display: inline !important; float: none;&quot;&gt;Uses&lt;/span&gt;&#xa;&#xa;" style="rounded=0;orthogonalLoop=1;jettySize=auto;html=1;exitX=0.5;exitY=1;exitDx=0;exitDy=0;entryX=0.5;entryY=0;entryDx=0;entryDy=0;" edge="1" parent="1" source="r4e1vHfF076-2u0slWTZ-25" target="pcHqlZRaP4U1WEdwjbR_-2">
          <mxGeometry x="0.0971" y="4" relative="1" as="geometry">
            <mxPoint as="offset" />
            <mxPoint x="1326" y="619.64" as="sourcePoint" />
            <mxPoint x="1232" y="797.64" as="targetPoint" />
          </mxGeometry>
        </mxCell>
        <mxCell id="pcHqlZRaP4U1WEdwjbR_-6" value="&lt;div&gt;&lt;span style=&quot;color: rgb(51, 0, 0);&quot;&gt;&lt;font style=&quot;font-size: 14px;&quot;&gt;&lt;b&gt;BOOKS DATA&lt;/b&gt;&lt;/font&gt;&lt;/span&gt;&lt;/div&gt;&lt;div&gt;&lt;span style=&quot;color: rgb(51, 0, 0);&quot;&gt;&lt;font style=&quot;font-size: 14px;&quot;&gt;&lt;i style=&quot;font-weight: 400;&quot;&gt;[Schema]&lt;/i&gt;&lt;/font&gt;&lt;/span&gt;&lt;/div&gt;" style="shape=cylinder3;whiteSpace=wrap;html=1;boundedLbl=1;backgroundOutline=1;size=15;fillColor=light-dark(#7dbef2, #ededed);strokeColor=#FFFFFF;" vertex="1" parent="1">
          <mxGeometry x="760" y="992.13" width="177" height="80" as="geometry" />
        </mxCell>
        <mxCell id="nly7NnGgDgc4oSnbFqWI-1" value="&lt;font style=&quot;font-size: 14px;&quot;&gt;&lt;b&gt;MOBILE APP&lt;/b&gt;&lt;/font&gt;&lt;div&gt;&lt;i&gt;[&lt;font&gt;Flutter / React Native&lt;/font&gt;]&lt;/i&gt;&lt;/div&gt;&lt;div&gt;&lt;br&gt;&lt;/div&gt;&lt;div&gt;GUI for the application&lt;/div&gt;" style="rounded=0;whiteSpace=wrap;html=1;fillColor=light-dark(#52a2d8, #198cc4);fontColor=#ffffff;strokeColor=#006EAF;" vertex="1" parent="1">
          <mxGeometry x="387" y="351" width="162" height="85" as="geometry" />
        </mxCell>
        <mxCell id="kT7Ujuo0Th9MW_iSTsLX-1" value="Uses&lt;div&gt;[IOS/Android App]&lt;/div&gt;" style="edgeStyle=orthogonalEdgeStyle;rounded=0;orthogonalLoop=1;jettySize=auto;html=1;entryX=0.5;entryY=0;entryDx=0;entryDy=0;" edge="1" parent="1" target="r4e1vHfF076-2u0slWTZ-25">
          <mxGeometry x="-0.4533" y="25" relative="1" as="geometry">
            <mxPoint y="-1" as="offset" />
            <mxPoint x="550" y="390" as="sourcePoint" />
            <mxPoint x="791" y="532.48" as="targetPoint" />
            <Array as="points">
              <mxPoint x="791" y="390" />
            </Array>
          </mxGeometry>
        </mxCell>
      </root>
    </mxGraphModel>
  </diagram>
  <diagram name="BTUD - 4" id="jMlAi3PHXZFZAs6Q64oh">
    <mxGraphModel dx="2293" dy="886" grid="1" gridSize="10" guides="1" tooltips="1" connect="1" arrows="1" fold="1" page="1" pageScale="1" pageWidth="850" pageHeight="1100" math="0" shadow="0">
      <root>
        <mxCell id="0" />
        <mxCell id="1" parent="0" />
        <mxCell id="Yxhefynm38IAg0hdbMyt-5" value="&lt;p style=&quot;margin:0px;margin-top:4px;text-align:center;&quot;&gt;&amp;lt;&amp;lt;Entity, AR&amp;gt;&amp;gt;&lt;/p&gt;&lt;p style=&quot;margin:0px;margin-top:4px;text-align:center;&quot;&gt;&lt;b&gt;BorrowTransaction&lt;/b&gt;&lt;/p&gt;&lt;hr size=&quot;1&quot; style=&quot;border-style:solid;&quot;&gt;&lt;p style=&quot;margin:0px;margin-left:4px;&quot;&gt;- string: _transactionId&lt;/p&gt;&lt;p style=&quot;margin:0px;margin-left:4px;&quot;&gt;&lt;br&gt;&lt;/p&gt;&lt;p style=&quot;margin:0px;margin-left:4px;&quot;&gt;- DateTime: _borrowDate&lt;/p&gt;&lt;p style=&quot;margin:0px;margin-left:4px;&quot;&gt;&lt;br&gt;&lt;/p&gt;&lt;p style=&quot;margin:0px;margin-left:4px;&quot;&gt;- DateTime: _dueDate&lt;/p&gt;&lt;p style=&quot;margin:0px;margin-left:4px;&quot;&gt;&lt;br&gt;&lt;/p&gt;&lt;p style=&quot;margin:0px;margin-left:4px;&quot;&gt;- DateTime: _returnDate&lt;/p&gt;&lt;p style=&quot;margin:0px;margin-left:4px;&quot;&gt;&lt;br&gt;&lt;/p&gt;&lt;p style=&quot;margin:0px;margin-left:4px;&quot;&gt;- string: _status (Borrowed | Returned | Overdue)&lt;/p&gt;&lt;p style=&quot;margin:0px;margin-left:4px;&quot;&gt;&lt;br&gt;&lt;/p&gt;&lt;p style=&quot;margin:0px;margin-left:4px;&quot;&gt;- memberId: MemberId&lt;/p&gt;&lt;p style=&quot;margin:0px;margin-left:4px;&quot;&gt;&lt;br&gt;&lt;/p&gt;&lt;p style=&quot;margin:0px;margin-left:4px;&quot;&gt;- borrowedBook: BorrowedBook (VO)&lt;/p&gt;&lt;p style=&quot;margin:0px;margin-left:4px;&quot;&gt;&lt;br&gt;&lt;/p&gt;&lt;p style=&quot;margin:0px;margin-left:4px;&quot;&gt;- fine: Fine (VO, optional)&lt;/p&gt;&lt;hr size=&quot;1&quot; style=&quot;border-style:solid;&quot;&gt;&lt;p style=&quot;margin:0px;margin-left:4px;&quot;&gt;BorrowTransaction Create(MemberId, BookId, DateTime dueDate)&lt;/p&gt;&lt;p style=&quot;margin:0px;margin-left:4px;&quot;&gt;&lt;br&gt;&lt;/p&gt;&lt;p style=&quot;margin:0px;margin-left:4px;&quot;&gt;void ReturnBook(DateTime returnDate)&lt;/p&gt;&lt;p style=&quot;margin:0px;margin-left:4px;&quot;&gt;&lt;br&gt;&lt;/p&gt;&lt;p style=&quot;margin:0px;margin-left:4px;&quot;&gt;bool IsOverdue(DateTime now)&lt;/p&gt;&lt;p style=&quot;margin:0px;margin-left:4px;&quot;&gt;&lt;br&gt;&lt;/p&gt;&lt;p style=&quot;margin:0px;margin-left:4px;&quot;&gt;bool IsActive()&lt;/p&gt;&lt;p style=&quot;margin:0px;margin-left:4px;&quot;&gt;&lt;br&gt;&lt;/p&gt;&lt;p style=&quot;margin:0px;margin-left:4px;&quot;&gt;void&amp;nbsp;CalculateFine(now)&lt;/p&gt;" style="verticalAlign=top;align=left;overflow=fill;html=1;whiteSpace=wrap;fillColor=#f5f5f5;fontColor=#333333;strokeColor=#666666;" parent="1" vertex="1">
          <mxGeometry x="240" y="390" width="270" height="430" as="geometry" />
        </mxCell>
        <mxCell id="W36IMeavDPk9Z35cNXqe-1" value="&lt;p style=&quot;margin:0px;margin-top:4px;text-align:center;&quot;&gt;&amp;lt;&amp;lt;Entity, AR&amp;gt;&amp;gt;&lt;/p&gt;&lt;p style=&quot;margin:0px;margin-top:4px;text-align:center;&quot;&gt;&lt;b&gt;Book&lt;/b&gt;&lt;/p&gt;&lt;hr size=&quot;1&quot; style=&quot;border-style:solid;&quot;&gt;&lt;p style=&quot;margin:0px;margin-left:4px;&quot;&gt;- BookId: _bookId&lt;/p&gt;&lt;p style=&quot;margin:0px;margin-left:4px;&quot;&gt;&lt;br&gt;&lt;/p&gt;&lt;p style=&quot;margin:0px;margin-left:4px;&quot;&gt;- string: _title&lt;/p&gt;&lt;p style=&quot;margin:0px;margin-left:4px;&quot;&gt;&lt;br&gt;&lt;/p&gt;&lt;p style=&quot;margin:0px;margin-left:4px;&quot;&gt;- string: _author&lt;/p&gt;&lt;p style=&quot;margin:0px;margin-left:4px;&quot;&gt;&lt;br&gt;&lt;/p&gt;&lt;p style=&quot;margin:0px;margin-left:4px;&quot;&gt;- string: _status&lt;/p&gt;&lt;hr size=&quot;1&quot; style=&quot;border-style:solid;&quot;&gt;&lt;p style=&quot;margin:0px;margin-left:4px;&quot;&gt;&lt;br&gt;&lt;/p&gt;" style="verticalAlign=top;align=left;overflow=fill;html=1;whiteSpace=wrap;fillColor=#f5f5f5;fontColor=#333333;strokeColor=#666666;" parent="1" vertex="1">
          <mxGeometry x="680" y="390" width="270" height="170" as="geometry" />
        </mxCell>
        <mxCell id="PzPbzPQD4VBWO4oxhiVM-1" value="&lt;p style=&quot;margin:0px;margin-top:4px;text-align:center;&quot;&gt;&amp;lt;&amp;lt;Entity&amp;gt;&amp;gt;&lt;/p&gt;&lt;p style=&quot;margin:0px;margin-top:4px;text-align:center;&quot;&gt;&lt;b&gt;Member&lt;/b&gt;&lt;/p&gt;&lt;hr size=&quot;1&quot; style=&quot;border-style:solid;&quot;&gt;&lt;p style=&quot;margin:0px;margin-left:4px;&quot;&gt;- MemberId: _memberId&lt;/p&gt;&lt;p style=&quot;margin:0px;margin-left:4px;&quot;&gt;&lt;br&gt;&lt;/p&gt;&lt;p style=&quot;margin:0px;margin-left:4px;&quot;&gt;- string: _name&lt;/p&gt;&lt;p style=&quot;margin:0px;margin-left:4px;&quot;&gt;&lt;br&gt;&lt;/p&gt;&lt;p style=&quot;margin:0px;margin-left:4px;&quot;&gt;- string: _email&lt;/p&gt;&lt;p style=&quot;margin:0px;margin-left:4px;&quot;&gt;&lt;br&gt;&lt;/p&gt;&lt;p style=&quot;margin:0px;margin-left:4px;&quot;&gt;-string: _status&lt;/p&gt;&lt;hr size=&quot;1&quot; style=&quot;border-style:solid;&quot;&gt;&lt;p style=&quot;margin:0px;margin-left:4px;&quot;&gt;&lt;br&gt;&lt;/p&gt;" style="verticalAlign=top;align=left;overflow=fill;html=1;whiteSpace=wrap;fillColor=#f5f5f5;fontColor=#333333;strokeColor=#666666;" parent="1" vertex="1">
          <mxGeometry x="680" y="590" width="270" height="170" as="geometry" />
        </mxCell>
        <mxCell id="PzPbzPQD4VBWO4oxhiVM-13" value="1" style="endArrow=none;html=1;endSize=12;startArrow=diamondThin;startSize=14;startFill=1;edgeStyle=orthogonalEdgeStyle;align=left;verticalAlign=bottom;rounded=0;entryX=0;entryY=0.25;entryDx=0;entryDy=0;curved=1;endFill=0;" parent="1" target="W36IMeavDPk9Z35cNXqe-1" edge="1">
          <mxGeometry x="-1" y="3" relative="1" as="geometry">
            <mxPoint x="510" y="520" as="sourcePoint" />
            <mxPoint x="670" y="388.53999999999996" as="targetPoint" />
            <Array as="points">
              <mxPoint x="560" y="520" />
              <mxPoint x="560" y="440" />
              <mxPoint x="670" y="440" />
              <mxPoint x="670" y="433" />
            </Array>
          </mxGeometry>
        </mxCell>
        <mxCell id="PzPbzPQD4VBWO4oxhiVM-14" value="1" style="endArrow=none;html=1;endSize=12;startArrow=diamondThin;startSize=14;startFill=1;edgeStyle=orthogonalEdgeStyle;align=left;verticalAlign=bottom;rounded=0;exitX=1;exitY=0.5;exitDx=0;exitDy=0;entryX=0;entryY=0.5;entryDx=0;entryDy=0;curved=1;endFill=0;" parent="1" target="PzPbzPQD4VBWO4oxhiVM-1" edge="1">
          <mxGeometry x="-1" y="3" relative="1" as="geometry">
            <mxPoint x="510" y="545" as="sourcePoint" />
            <mxPoint x="680" y="450" as="targetPoint" />
            <Array as="points">
              <mxPoint x="600" y="545" />
              <mxPoint x="600" y="635" />
              <mxPoint x="680" y="635" />
            </Array>
          </mxGeometry>
        </mxCell>
        <mxCell id="PzPbzPQD4VBWO4oxhiVM-15" value="0..*" style="text;html=1;align=center;verticalAlign=middle;whiteSpace=wrap;rounded=0;" parent="1" vertex="1">
          <mxGeometry x="620" y="640" width="60" height="30" as="geometry" />
        </mxCell>
        <mxCell id="PzPbzPQD4VBWO4oxhiVM-16" value="&lt;p style=&quot;margin:0px;margin-top:4px;text-align:center;&quot;&gt;&amp;lt;&amp;lt;VO&amp;gt;&amp;gt;&lt;/p&gt;&lt;p style=&quot;margin:0px;margin-top:4px;text-align:center;&quot;&gt;&lt;b&gt;Fine&lt;/b&gt;&lt;/p&gt;&lt;hr size=&quot;1&quot; style=&quot;border-style:solid;&quot;&gt;&lt;p style=&quot;margin:0px;margin-left:4px;&quot;&gt;- int: amount&lt;/p&gt;&lt;p style=&quot;margin:0px;margin-left:4px;&quot;&gt;- string: currency&lt;/p&gt;&lt;hr size=&quot;1&quot; style=&quot;border-style:solid;&quot;&gt;&lt;p style=&quot;margin:0px;margin-left:4px;&quot;&gt;caculateFine()&lt;/p&gt;" style="verticalAlign=top;align=left;overflow=fill;html=1;whiteSpace=wrap;fillColor=#f5f5f5;fontColor=#333333;strokeColor=#666666;" parent="1" vertex="1">
          <mxGeometry x="-150" y="545" width="270" height="120" as="geometry" />
        </mxCell>
        <mxCell id="PzPbzPQD4VBWO4oxhiVM-17" value="&lt;p style=&quot;margin:0px;margin-top:4px;text-align:center;&quot;&gt;&amp;lt;&amp;lt;VO&amp;gt;&amp;gt;&lt;/p&gt;&lt;p style=&quot;margin:0px;margin-top:4px;text-align:center;&quot;&gt;&lt;b&gt;BorrowedBook&lt;/b&gt;&lt;/p&gt;&lt;hr size=&quot;1&quot; style=&quot;border-style:solid;&quot;&gt;&lt;p style=&quot;margin:0px;margin-left:4px;&quot;&gt;-&amp;nbsp;&lt;span style=&quot;background-color: transparent;&quot;&gt;bookId: BookId&lt;/span&gt;&lt;br&gt;&lt;/p&gt;&lt;p style=&quot;margin:0px;margin-left:4px;&quot;&gt;&lt;br&gt;&lt;/p&gt;&lt;p style=&quot;margin:0px;margin-left:4px;&quot;&gt;- title: string&lt;/p&gt;&lt;hr size=&quot;1&quot; style=&quot;border-style:solid;&quot;&gt;&lt;p style=&quot;margin:0px;margin-left:4px;&quot;&gt;&lt;br&gt;&lt;/p&gt;" style="verticalAlign=top;align=left;overflow=fill;html=1;whiteSpace=wrap;fillColor=#f5f5f5;fontColor=#333333;strokeColor=#666666;" parent="1" vertex="1">
          <mxGeometry x="-170" y="360" width="270" height="120" as="geometry" />
        </mxCell>
        <mxCell id="HQf4KfLNHeQvUEzNpDw8-1" value="1" style="endArrow=none;html=1;startArrow=diamondThin;startFill=1;edgeStyle=orthogonalEdgeStyle;align=left;verticalAlign=bottom;rounded=0;entryX=1;entryY=0.5;entryDx=0;entryDy=0;exitX=0;exitY=0.25;exitDx=0;exitDy=0;endFill=0;" edge="1" parent="1" source="Yxhefynm38IAg0hdbMyt-5" target="PzPbzPQD4VBWO4oxhiVM-16">
          <mxGeometry x="-1" y="3" relative="1" as="geometry">
            <mxPoint x="40" y="460" as="sourcePoint" />
            <mxPoint x="200" y="460" as="targetPoint" />
          </mxGeometry>
        </mxCell>
        <mxCell id="HQf4KfLNHeQvUEzNpDw8-2" value="1" style="endArrow=none;html=1;startArrow=diamondThin;startFill=1;edgeStyle=orthogonalEdgeStyle;align=left;verticalAlign=bottom;rounded=0;entryX=1;entryY=0.5;entryDx=0;entryDy=0;exitX=0;exitY=0.25;exitDx=0;exitDy=0;endFill=0;" edge="1" parent="1" target="PzPbzPQD4VBWO4oxhiVM-17">
          <mxGeometry x="-1" y="3" relative="1" as="geometry">
            <mxPoint x="240" y="497" as="sourcePoint" />
            <mxPoint x="120" y="604" as="targetPoint" />
          </mxGeometry>
        </mxCell>
        <mxCell id="HQf4KfLNHeQvUEzNpDw8-3" value="of" style="text;html=1;align=center;verticalAlign=middle;whiteSpace=wrap;rounded=0;" vertex="1" parent="1">
          <mxGeometry x="180" y="470" width="60" height="30" as="geometry" />
        </mxCell>
      </root>
    </mxGraphModel>
  </diagram>
  <diagram name="Page-9" id="eIMen3I5Tf-K97DMbW3d">
    <mxGraphModel dx="1177" dy="576" grid="1" gridSize="10" guides="1" tooltips="1" connect="1" arrows="1" fold="1" page="1" pageScale="1" pageWidth="850" pageHeight="1100" math="0" shadow="0">
      <root>
        <mxCell id="0" />
        <mxCell id="1" parent="0" />
      </root>
    </mxGraphModel>
  </diagram>
</mxfile>
